<?xml version="1.0" encoding="UTF-8"?>
<svg id="Layer_1" xmlns="http://www.w3.org/2000/svg" version="1.1" xmlns:xlink="http://www.w3.org/1999/xlink" viewBox="0 0 400 100">
  <!-- Generator: Adobe Illustrator 29.3.1, SVG Export Plug-In . SVG Version: 2.1.0 Build 151)  -->
  <defs>
    <style>
      .st0 {
        fill: url(#linear-gradient2);
      }

      .st1 {
        fill: url(#linear-gradient36);
      }

      .st2 {
        fill: url(#linear-gradient39);
      }

      .st3 {
        fill: url(#linear-gradient34);
      }

      .st4 {
        fill: url(#linear-gradient33);
      }

      .st5 {
        fill: url(#linear-gradient10);
      }

      .st6 {
        fill: url(#linear-gradient32);
      }

      .st7 {
        fill: url(#linear-gradient21);
      }

      .st8 {
        fill: url(#linear-gradient37);
      }

      .st9 {
        fill: url(#linear-gradient27);
      }

      .st10 {
        fill: url(#linear-gradient35);
      }

      .st11 {
        fill: url(#linear-gradient26);
      }

      .st12 {
        fill: url(#linear-gradient1);
      }

      .st13 {
        fill: url(#linear-gradient9);
      }

      .st14 {
        fill: url(#linear-gradient18);
      }

      .st15 {
        fill: url(#linear-gradient23);
      }

      .st16 {
        fill: url(#linear-gradient43);
      }

      .st17 {
        fill: url(#linear-gradient8);
      }

      .st18 {
        fill: url(#linear-gradient11);
      }

      .st19 {
        fill: url(#linear-gradient16);
      }

      .st20 {
        fill: url(#linear-gradient24);
      }

      .st21 {
        fill: url(#linear-gradient30);
      }

      .st22 {
        fill: url(#linear-gradient46);
      }

      .st23 {
        fill: url(#linear-gradient22);
      }

      .st24 {
        fill: url(#linear-gradient29);
      }

      .st25 {
        fill: url(#linear-gradient49);
      }

      .st26 {
        fill: url(#linear-gradient19);
      }

      .st27 {
        fill: url(#linear-gradient12);
      }

      .st28 {
        fill: url(#linear-gradient42);
      }

      .st29 {
        fill: url(#linear-gradient28);
      }

      .st30 {
        fill: url(#linear-gradient40);
      }

      .st31 {
        fill: url(#linear-gradient7);
      }

      .st32 {
        fill: url(#linear-gradient20);
      }

      .st33 {
        fill: url(#linear-gradient4);
      }

      .st34 {
        fill: url(#linear-gradient31);
      }

      .st35 {
        fill: url(#linear-gradient14);
      }

      .st36 {
        fill: url(#linear-gradient5);
      }

      .st37 {
        fill: url(#linear-gradient3);
      }

      .st38 {
        fill: url(#linear-gradient38);
      }

      .st39 {
        fill: url(#linear-gradient25);
      }

      .st40 {
        fill: url(#linear-gradient15);
      }

      .st41 {
        fill: url(#linear-gradient17);
      }

      .st42 {
        fill: url(#linear-gradient50);
      }

      .st43 {
        fill: url(#linear-gradient6);
      }

      .st44 {
        fill: url(#linear-gradient48);
      }

      .st45 {
        fill: url(#linear-gradient13);
      }

      .st46 {
        fill: url(#linear-gradient45);
      }

      .st47 {
        fill: url(#linear-gradient47);
      }

      .st48 {
        fill: url(#linear-gradient);
      }

      .st49 {
        fill: url(#linear-gradient44);
      }

      .st50 {
        fill: url(#linear-gradient41);
      }
    </style>
    <linearGradient id="linear-gradient" x1="339.7" y1="14.51" x2="341.38" y2="68.27" gradientUnits="userSpaceOnUse">
      <stop offset="0" stop-color="#2dc66c"/>
      <stop offset=".97" stop-color="#369f43"/>
    </linearGradient>
    <linearGradient id="linear-gradient1" x1=".04" y1="79.58" x2="7.21" y2="79.58" gradientUnits="userSpaceOnUse">
      <stop offset="0" stop-color="#3393c3"/>
      <stop offset="1" stop-color="#1e61af"/>
    </linearGradient>
    <linearGradient id="linear-gradient2" x1="12.19" y1="79.6" x2="22.99" y2="79.6" xlink:href="#linear-gradient1"/>
    <linearGradient id="linear-gradient3" x1="27.6" y1="79.59" x2="37.03" y2="79.59" xlink:href="#linear-gradient1"/>
    <linearGradient id="linear-gradient4" x1="41.62" y1="79.6" x2="49.03" y2="79.6" xlink:href="#linear-gradient1"/>
    <linearGradient id="linear-gradient5" x1="53.45" y1="79.6" x2="60.71" y2="79.6" xlink:href="#linear-gradient1"/>
    <linearGradient id="linear-gradient6" x1="71.8" x2="78.98" xlink:href="#linear-gradient1"/>
    <linearGradient id="linear-gradient7" x1="83.96" y1="79.59" x2="89.7" y2="79.59" xlink:href="#linear-gradient1"/>
    <linearGradient id="linear-gradient8" x1="94.77" y1="79.6" x2="102.17" y2="79.6" xlink:href="#linear-gradient1"/>
    <linearGradient id="linear-gradient9" x1="106.34" y1="79.6" x2="116.01" y2="79.6" xlink:href="#linear-gradient1"/>
    <linearGradient id="linear-gradient10" x1="120.47" y1="79.6" x2="122.45" y2="79.6" xlink:href="#linear-gradient1"/>
    <linearGradient id="linear-gradient11" x1="127.19" y1="79.58" x2="136.86" y2="79.58" xlink:href="#linear-gradient1"/>
    <linearGradient id="linear-gradient12" x1="141.83" y1="79.59" x2="147.57" y2="79.59" xlink:href="#linear-gradient1"/>
    <linearGradient id="linear-gradient13" x1="152.38" x2="159.55" xlink:href="#linear-gradient1"/>
    <linearGradient id="linear-gradient14" x1="171.17" y1="79.6" x2="177.28" y2="79.6" xlink:href="#linear-gradient1"/>
    <linearGradient id="linear-gradient15" x1="181.47" x2="191.61" xlink:href="#linear-gradient1"/>
    <linearGradient id="linear-gradient16" x1="196.35" y1="79.6" x2="203.75" y2="79.6" xlink:href="#linear-gradient1"/>
    <linearGradient id="linear-gradient17" x1="215.08" x2="222.26" xlink:href="#linear-gradient1"/>
    <linearGradient id="linear-gradient18" x1="227.24" y1="79.6" x2="238.03" y2="79.6" xlink:href="#linear-gradient1"/>
    <linearGradient id="linear-gradient19" x1="242.64" y1="79.59" x2="252.07" y2="79.59" xlink:href="#linear-gradient1"/>
    <linearGradient id="linear-gradient20" x1="256.67" y1="79.6" x2="264.07" y2="79.6" xlink:href="#linear-gradient1"/>
    <linearGradient id="linear-gradient21" x1="268.49" y1="79.6" x2="275.76" y2="79.6" xlink:href="#linear-gradient1"/>
    <linearGradient id="linear-gradient22" x1="287.1" y1="79.6" x2="294.63" y2="79.6" xlink:href="#linear-gradient1"/>
    <linearGradient id="linear-gradient23" x1="299.46" y1="79.65" x2="307.46" y2="79.65" xlink:href="#linear-gradient1"/>
    <linearGradient id="linear-gradient24" x1="312.38" x2="319.55" xlink:href="#linear-gradient1"/>
    <linearGradient id="linear-gradient25" x1="324.53" y1="79.6" x2="326.52" y2="79.6" xlink:href="#linear-gradient1"/>
    <linearGradient id="linear-gradient26" x1="331.74" y1="79.59" x2="340.2" y2="79.59" xlink:href="#linear-gradient1"/>
    <linearGradient id="linear-gradient27" x1="345.42" y1="79.59" x2="351.17" y2="79.59" xlink:href="#linear-gradient1"/>
    <linearGradient id="linear-gradient28" x1="355.98" x2="363.15" xlink:href="#linear-gradient1"/>
    <linearGradient id="linear-gradient29" x1="367.87" x2="375.05" xlink:href="#linear-gradient1"/>
    <linearGradient id="linear-gradient30" x1="380.03" y1="79.59" x2="385.77" y2="79.59" xlink:href="#linear-gradient1"/>
    <linearGradient id="linear-gradient31" x1="390.58" x2="397.76" xlink:href="#linear-gradient1"/>
    <linearGradient id="linear-gradient32" x1="134.21" y1="14.54" x2="134.05" y2="67.05" xlink:href="#linear-gradient1"/>
    <linearGradient id="linear-gradient33" x1="134.21" y1="14.54" x2="134.05" y2="67.05" xlink:href="#linear-gradient1"/>
    <linearGradient id="linear-gradient34" x1="134.21" y1="14.54" x2="134.05" y2="67.05" xlink:href="#linear-gradient1"/>
    <linearGradient id="linear-gradient35" x1="134.21" y1="14.54" x2="134.05" y2="67.05" xlink:href="#linear-gradient1"/>
    <linearGradient id="linear-gradient36" x1="134.21" y1="14.54" x2="134.05" y2="67.05" xlink:href="#linear-gradient1"/>
    <linearGradient id="linear-gradient37" x1="134.21" y1="14.54" x2="134.05" y2="67.05" xlink:href="#linear-gradient1"/>
    <linearGradient id="linear-gradient38" x1="134.21" y1="14.54" x2="134.05" y2="67.05" xlink:href="#linear-gradient1"/>
    <linearGradient id="linear-gradient39" x1="134.21" y1="14.54" x2="134.05" y2="67.05" xlink:href="#linear-gradient1"/>
    <linearGradient id="linear-gradient40" x1="134.21" y1="14.54" x2="134.05" y2="67.05" xlink:href="#linear-gradient1"/>
    <linearGradient id="linear-gradient41" x1="134.21" y1="14.54" x2="134.05" y2="67.05" xlink:href="#linear-gradient1"/>
    <linearGradient id="linear-gradient42" x1="134.21" y1="14.54" x2="134.05" y2="67.05" xlink:href="#linear-gradient1"/>
    <linearGradient id="linear-gradient43" x1="134.21" y1="14.54" x2="134.05" y2="67.05" xlink:href="#linear-gradient1"/>
    <linearGradient id="linear-gradient44" x1="134.21" y1="14.54" x2="134.05" y2="67.05" xlink:href="#linear-gradient1"/>
    <linearGradient id="linear-gradient45" x1="134.21" y1="14.54" x2="134.05" y2="67.05" xlink:href="#linear-gradient1"/>
    <linearGradient id="linear-gradient46" x1="134.21" y1="14.54" x2="134.05" y2="67.05" xlink:href="#linear-gradient1"/>
    <linearGradient id="linear-gradient47" x1="134.21" y1="14.54" x2="134.05" y2="67.05" xlink:href="#linear-gradient1"/>
    <linearGradient id="linear-gradient48" x1="134.21" y1="14.54" x2="134.05" y2="67.05" xlink:href="#linear-gradient1"/>
    <linearGradient id="linear-gradient49" x1="134.21" y1="14.54" x2="134.05" y2="67.05" xlink:href="#linear-gradient1"/>
    <linearGradient id="linear-gradient50" x1="134.21" y1="14.54" x2="134.05" y2="67.05" xlink:href="#linear-gradient1"/>
  </defs>
  <g>
    <path class="st48" d="M382.1,18.3h0c-9.89,0-17.9,7.93-17.9,17.72v13.79c0,9.78,8.02,17.72,17.9,17.72h0c9.89,0,17.9-7.93,17.9-17.72v-13.79c0-9.78-8.02-17.72-17.9-17.72ZM395.9,49.57c0,7.55-6.18,13.66-13.81,13.66h0c-7.63,0-13.81-6.12-13.81-13.66v-13.68c0-7.55,6.18-13.66,13.81-13.66h0c7.63,0,13.81,6.12,13.81,13.66v13.68Z"/>
    <path class="st48" d="M387.86,26.29c-1.29-.72-2.9.2-2.9,1.67h0c0,.72.41,1.37,1.05,1.7,1.96,1.03,3.3,3.07,3.3,5.42v15.17c0,3.38-2.77,6.13-6.19,6.13h-2.08c-3.42,0-6.19-2.74-6.19-6.13v-15.17c0-2.31,1.29-4.31,3.19-5.35.62-.34,1.01-.98,1.01-1.68,0-1.48-1.63-2.41-2.92-1.66-2.98,1.73-4.98,4.94-4.98,8.61v15.45c0,5.52,4.52,9.99,10.09,9.99h1.67c5.57,0,10.09-4.47,10.09-9.99v-15.45c0-3.74-2.08-7-5.15-8.71Z"/>
    <path class="st48" d="M352.28,63.23l-1.32-1.94-.59-.86-2.76-4.06-4.98-7.34c-.38-.56-1.02-.9-1.7-.9-1.64,0-2.61,1.81-1.7,3.16l3.45,5.08,2.76,4.06,1.9,2.8,2.31,3.39c.38.56,1.02.89,1.7.89h0c1.64,0,2.61-1.81,1.7-3.15l-.77-1.13Z"/>
    <path class="st48" d="M345.97,38.65h-4.95c-1.1,0-1.99.88-1.99,1.97s.89,1.97,1.99,1.97h5.08c4.94,0,8.95-3.96,8.95-8.86v-1.18c0-4.16-3.41-7.54-7.62-7.54h-14.61c-1.1,0-1.99.88-1.99,1.97s.89,1.97,1.99,1.97h13.19c2.59,0,4.83,1.97,4.94,4.53.12,2.83-2.16,5.16-4.99,5.16Z"/>
    <path class="st48" d="M361.32,63.23l-1.9-2.8-1.17-1.72-1.59-2.33-1.6-2.36-1.92-2.83h0l-2.06-3.03s0,0,0,0c7.27-1.29,9.86-5.97,10.78-8.84,0,0,0,0,0,0,1.64-4.67.07-10.42.07-10.42,0,0,0,0,0,0-1.55-6.09-7.11-10.59-13.74-10.59h-17.34v.09l-.06-.09h-5.13c-1.16,0-2.1.93-2.1,2.08v5.43h0s0,7.19,0,7.19c0,0,0,0,0,0v32.38c0,1.1.83,2.08,1.94,2.14,1.18.06,2.16-.87,2.16-2.02V22.23h18.56c6.65,0,12.05,5.34,12.05,11.92v.51c0,5.21-4.26,9.43-9.53,9.43h-.41c-2.1,0-3.36,2.32-2.18,4.05l4.83,7.11.76,1.13,2.76,4.06.57.84,1.33,1.96,2.05,3.02c.54.79,1.44,1.27,2.41,1.27,1.44,0,2.3-1.6,1.5-2.78l-1.02-1.5Z"/>
    <path class="st48" d="M332.9,31.68c-1.14,0-2.07.92-2.07,2.05v31.77c0,1.12.92,2.02,2.05,2.02s2.05-.91,2.05-2.02v-24.74l.05-7.02c0-1.14-.92-2.06-2.07-2.06Z"/>
    <path class="st48" d="M306.29,38.34h-8.12c-1.08-.01-1.95.85-1.95,1.92s.87,1.93,1.95,1.93h7.71c4.71,0,8.53-3.78,8.53-8.44s-3.82-8.44-8.53-8.44h-14.28c-1.01,0-1.92.73-2.02,1.73-.11,1.15.8,2.11,1.93,2.11h13.95c2.8,0,5.06,2.24,5.06,5.01,0,2.31-1.9,4.19-4.23,4.19Z"/>
    <path class="st48" d="M291.01,31.68c-1.14,0-2.07.92-2.07,2.05v31.77c0,1.12.92,2.02,2.05,2.02s2.05-.91,2.05-2.02v-24.74l.05-7.02c0-1.14-.92-2.06-2.07-2.06Z"/>
    <path class="st48" d="M306.74,18.18h-25.09v46.84c0,1.38.92,2.5,2.05,2.5s2.05-1.12,2.05-2.5V22.23h20.63c5.83,0,10.56,4.68,10.56,10.45v2.52c0,5.77-4.73,10.45-10.56,10.45h-8.54c-1.13,0-2.05.91-2.05,2.02s.92,2.02,2.05,2.02h8.91c7.89,0,14.28-6.33,14.28-14.13v-3.24c0-7.8-6.39-14.13-14.28-14.13Z"/>
  </g>
  <path class="st12" d="M5.73,79.34c-.41-.19-.93-.38-1.57-.57-.47-.14-.84-.27-1.1-.38-.26-.11-.48-.25-.65-.43-.17-.18-.26-.4-.26-.67,0-.38.12-.67.35-.87.23-.2.54-.3.93-.3.44,0,.8.11,1.07.34.27.22.41.51.43.85h2.18c-.07-.9-.42-1.6-1.06-2.1-.64-.5-1.47-.75-2.49-.75-.68,0-1.29.12-1.82.35-.53.23-.94.57-1.23,1.01-.29.44-.44.95-.44,1.55,0,.63.14,1.13.43,1.51.29.38.63.66,1.04.84.4.19.92.37,1.57.57.47.13.84.26,1.11.37s.49.26.67.45c.18.19.27.43.27.73,0,.36-.13.66-.4.88-.26.22-.63.34-1.09.34s-.81-.12-1.07-.36c-.26-.24-.4-.56-.43-.97H.04c0,.61.18,1.14.5,1.59.32.45.76.79,1.31,1.03.55.24,1.17.36,1.87.36.73,0,1.36-.14,1.89-.41.53-.27.93-.64,1.21-1.1.27-.46.41-.95.41-1.49,0-.62-.15-1.12-.44-1.5-.29-.38-.64-.67-1.05-.86Z"/>
  <polygon class="st0" points="17.6 82.03 14.45 74.6 12.19 74.6 12.19 84.6 14.18 84.6 14.18 78.09 16.85 84.6 18.35 84.6 21 78.09 21 84.6 22.99 84.6 22.99 74.6 20.75 74.6 17.6 82.03"/>
  <path class="st37" d="M31.16,74.58l-3.56,10.01h2.09l.65-1.9h3.94l.65,1.9h2.1l-3.56-10.01h-2.31ZM30.87,81.09l1.43-4.18,1.43,4.18h-2.87Z"/>
  <path class="st33" d="M48.35,79.45c.38-.53.57-1.12.57-1.78,0-.57-.14-1.09-.4-1.55-.27-.46-.67-.83-1.21-1.1-.54-.27-1.19-.41-1.96-.41h-3.72v10h1.99v-3.9h.94l2.18,3.9h2.3l-2.37-4.05c.75-.2,1.31-.57,1.69-1.1ZM45.27,79.2h-1.66v-2.94h1.66c.54,0,.94.13,1.21.38.26.25.4.61.4,1.07s-.13.83-.4,1.1c-.26.26-.67.39-1.21.39Z"/>
  <polygon class="st36" points="53.45 76.22 56.09 76.22 56.09 84.6 58.08 84.6 58.08 76.22 60.71 76.22 60.71 74.6 53.45 74.6 53.45 76.22"/>
  <path class="st43" d="M77.49,79.34c-.41-.19-.93-.38-1.57-.57-.47-.14-.84-.27-1.1-.38-.26-.11-.48-.25-.65-.43-.17-.18-.26-.4-.26-.67,0-.38.12-.67.35-.87.23-.2.54-.3.93-.3.44,0,.8.11,1.07.34.27.22.41.51.43.85h2.18c-.07-.9-.42-1.6-1.06-2.1-.64-.5-1.47-.75-2.49-.75-.68,0-1.29.12-1.82.35-.53.23-.94.57-1.23,1.01s-.44.95-.44,1.55c0,.63.14,1.13.43,1.51.29.38.63.66,1.04.84.4.19.92.37,1.57.57.47.13.84.26,1.11.37s.49.26.67.45c.18.19.27.43.27.73,0,.36-.13.66-.4.88-.26.22-.63.34-1.09.34s-.81-.12-1.07-.36c-.26-.24-.4-.56-.43-.97h-2.13c0,.61.18,1.14.5,1.59.32.45.76.79,1.31,1.03.55.24,1.17.36,1.86.36.73,0,1.36-.14,1.89-.41.53-.27.93-.64,1.21-1.1.27-.46.41-.95.41-1.49,0-.62-.15-1.12-.44-1.5-.29-.38-.64-.67-1.05-.86Z"/>
  <polygon class="st31" points="83.96 84.6 89.7 84.6 89.7 82.96 85.94 82.96 85.94 80.31 89.28 80.31 89.28 78.72 85.94 78.72 85.94 76.22 89.7 76.22 89.7 74.58 83.96 74.58 83.96 84.6"/>
  <path class="st17" d="M101.49,79.45c.38-.53.57-1.12.57-1.78,0-.57-.14-1.09-.4-1.55-.27-.46-.67-.83-1.21-1.1-.54-.27-1.19-.41-1.96-.41h-3.72v10h1.99v-3.9h.94l2.18,3.9h2.3l-2.37-4.05c.75-.2,1.31-.57,1.69-1.1ZM98.41,79.2h-1.66v-2.94h1.66c.54,0,.94.13,1.21.38.26.25.4.61.4,1.07s-.13.83-.4,1.1c-.26.26-.67.39-1.21.39Z"/>
  <polygon class="st13" points="111.19 82.55 108.47 74.6 106.34 74.6 109.97 84.6 112.38 84.6 116.01 74.6 113.9 74.6 111.19 82.55"/>
  <rect class="st5" x="120.47" y="74.6" width="1.99" height="10"/>
  <path class="st18" d="M130.66,76.68c.45-.27.96-.41,1.54-.41.54,0,1.01.12,1.43.36.41.24.73.6.96,1.07h2.28c-.33-1.01-.91-1.8-1.74-2.38s-1.8-.86-2.91-.86c-.95,0-1.8.22-2.56.65-.76.43-1.36,1.04-1.8,1.82-.44.78-.66,1.66-.66,2.64s.22,1.86.66,2.63,1.04,1.38,1.8,1.81c.76.43,1.61.65,2.56.65,1.12,0,2.09-.28,2.91-.85.83-.57,1.41-1.36,1.74-2.38h-2.28c-.23.48-.55.84-.96,1.08-.41.24-.89.37-1.43.37-.58,0-1.09-.14-1.54-.41-.45-.27-.8-.66-1.05-1.16-.25-.5-.38-1.08-.38-1.74s.13-1.25.38-1.75c.25-.5.6-.88,1.05-1.15Z"/>
  <polygon class="st27" points="141.83 84.6 147.57 84.6 147.57 82.96 143.81 82.96 143.81 80.31 147.14 80.31 147.14 78.72 143.81 78.72 143.81 76.22 147.57 76.22 147.57 74.58 141.83 74.58 141.83 84.6"/>
  <path class="st45" d="M158.07,79.34c-.41-.19-.93-.38-1.57-.57-.47-.14-.84-.27-1.1-.38-.26-.11-.48-.25-.65-.43-.17-.18-.26-.4-.26-.67,0-.38.12-.67.35-.87.23-.2.54-.3.93-.3.44,0,.8.11,1.07.34.27.22.41.51.43.85h2.18c-.07-.9-.42-1.6-1.06-2.1-.64-.5-1.47-.75-2.49-.75-.68,0-1.29.12-1.82.35-.53.23-.94.57-1.23,1.01-.29.44-.44.95-.44,1.55,0,.63.14,1.13.43,1.51.29.38.63.66,1.04.84.4.19.92.37,1.57.57.47.13.84.26,1.11.37s.49.26.67.45c.18.19.27.43.27.73,0,.36-.13.66-.4.88-.26.22-.63.34-1.09.34s-.81-.12-1.07-.36c-.26-.24-.4-.56-.43-.97h-2.13c0,.61.18,1.14.5,1.59.32.45.76.79,1.31,1.03.55.24,1.17.36,1.87.36.73,0,1.36-.14,1.89-.41.53-.27.93-.64,1.21-1.1.27-.46.41-.95.41-1.49,0-.62-.15-1.12-.44-1.5-.29-.38-.64-.67-1.05-.86Z"/>
  <polygon class="st35" points="171.17 84.6 173.16 84.6 173.16 80.37 176.32 80.37 176.32 78.78 173.16 78.78 173.16 76.22 177.28 76.22 177.28 74.6 171.17 74.6 171.17 84.6"/>
  <path class="st40" d="M189.11,75.11c-.77-.44-1.62-.66-2.56-.66s-1.78.22-2.55.66c-.77.44-1.39,1.05-1.84,1.83-.45.78-.68,1.65-.68,2.63s.23,1.86.68,2.64c.45.78,1.07,1.39,1.84,1.83.78.44,1.63.66,2.55.66s1.78-.22,2.55-.66c.77-.44,1.39-1.05,1.84-1.83.45-.78.67-1.66.67-2.64s-.22-1.85-.67-2.63c-.45-.78-1.06-1.39-1.83-1.83ZM189.18,81.33c-.26.51-.61.9-1.06,1.17-.45.27-.98.41-1.57.41s-1.12-.14-1.58-.41c-.46-.27-.82-.66-1.07-1.17-.26-.51-.38-1.09-.38-1.76s.13-1.25.38-1.75c.26-.5.61-.89,1.07-1.15.46-.27.99-.4,1.58-.4s1.12.13,1.57.4c.45.27.81.65,1.06,1.15.26.5.38,1.09.38,1.75s-.13,1.26-.38,1.76Z"/>
  <path class="st19" d="M203.07,79.45c.38-.53.57-1.12.57-1.78,0-.57-.14-1.09-.4-1.55-.27-.46-.67-.83-1.21-1.1-.54-.27-1.19-.41-1.96-.41h-3.72v10h1.99v-3.9h.94l2.18,3.9h2.3l-2.37-4.05c.75-.2,1.31-.57,1.69-1.1ZM199.99,79.2h-1.66v-2.94h1.66c.54,0,.94.13,1.21.38.26.25.4.61.4,1.07s-.13.83-.4,1.1c-.26.26-.67.39-1.21.39Z"/>
  <path class="st41" d="M220.77,79.34c-.41-.19-.93-.38-1.57-.57-.47-.14-.84-.27-1.1-.38-.26-.11-.48-.25-.65-.43-.17-.18-.26-.4-.26-.67,0-.38.12-.67.35-.87.23-.2.54-.3.93-.3.44,0,.8.11,1.07.34.27.22.41.51.43.85h2.18c-.07-.9-.42-1.6-1.06-2.1-.64-.5-1.47-.75-2.49-.75-.68,0-1.29.12-1.82.35-.53.23-.94.57-1.23,1.01-.29.44-.44.95-.44,1.55,0,.63.14,1.13.43,1.51.29.38.63.66,1.04.84.4.19.92.37,1.57.57.47.13.84.26,1.11.37s.49.26.67.45c.18.19.27.43.27.73,0,.36-.13.66-.4.88-.26.22-.63.34-1.09.34s-.81-.12-1.07-.36c-.26-.24-.4-.56-.43-.97h-2.13c0,.61.18,1.14.5,1.59.32.45.76.79,1.31,1.03.55.24,1.17.36,1.87.36.73,0,1.36-.14,1.89-.41.53-.27.93-.64,1.21-1.1.27-.46.41-.95.41-1.49,0-.62-.15-1.12-.44-1.5-.29-.38-.64-.67-1.05-.86Z"/>
  <polygon class="st14" points="232.64 82.03 229.49 74.6 227.24 74.6 227.24 84.6 229.22 84.6 229.22 78.09 231.89 84.6 233.39 84.6 236.04 78.09 236.04 84.6 238.03 84.6 238.03 74.6 235.79 74.6 232.64 82.03"/>
  <path class="st26" d="M246.2,74.58l-3.56,10.01h2.09l.65-1.9h3.94l.65,1.9h2.1l-3.56-10.01h-2.31ZM245.91,81.09l1.43-4.18,1.43,4.18h-2.87Z"/>
  <path class="st32" d="M263.39,79.45c.38-.53.57-1.12.57-1.78,0-.57-.14-1.09-.4-1.55-.27-.46-.67-.83-1.21-1.1-.54-.27-1.19-.41-1.96-.41h-3.72v10h1.99v-3.9h.94l2.18,3.9h2.3l-2.37-4.05c.75-.2,1.31-.57,1.69-1.1ZM260.31,79.2h-1.66v-2.94h1.66c.54,0,.94.13,1.21.38.26.25.4.61.4,1.07s-.13.83-.4,1.1c-.26.26-.67.39-1.21.39Z"/>
  <polygon class="st7" points="268.49 76.22 271.13 76.22 271.13 84.6 273.12 84.6 273.12 76.22 275.76 76.22 275.76 74.6 268.49 74.6 268.49 76.22"/>
  <path class="st23" d="M292.72,79.47c.51-.16.92-.44,1.23-.83.31-.39.46-.88.46-1.46,0-.5-.13-.94-.38-1.33-.25-.39-.62-.7-1.11-.92-.49-.22-1.07-.33-1.74-.33h-4.08v10h4.27c.67,0,1.25-.11,1.74-.34.49-.23.87-.55,1.13-.95.26-.41.39-.88.39-1.41,0-.59-.18-1.12-.54-1.58-.36-.46-.82-.74-1.38-.84ZM289.09,76.22h1.82c.47,0,.84.11,1.09.33.25.22.38.53.38.93s-.13.71-.38.92c-.26.21-.62.32-1.09.32h-1.82v-2.51ZM292.22,82.62c-.27.23-.65.34-1.13.34h-2v-2.69h1.96c.48,0,.86.12,1.15.37.28.24.43.58.43,1.01s-.14.74-.4.97Z"/>
  <path class="st15" d="M305.46,80.79c0,.68-.18,1.2-.52,1.55-.35.36-.85.54-1.49.54s-1.13-.18-1.48-.54-.52-.88-.52-1.55v-6.19h-1.99v6.17c0,.85.18,1.57.52,2.16.35.59.82,1.03,1.43,1.32.6.3,1.27.44,2.01.44s1.43-.15,2.04-.44c.61-.3,1.1-.74,1.46-1.32.36-.59.55-1.31.55-2.16v-6.17h-2v6.19Z"/>
  <path class="st20" d="M318.06,79.34c-.41-.19-.93-.38-1.57-.57-.47-.14-.84-.27-1.1-.38-.26-.11-.48-.25-.65-.43-.17-.18-.26-.4-.26-.67,0-.38.12-.67.35-.87.23-.2.54-.3.93-.3.44,0,.8.11,1.07.34.27.22.41.51.43.85h2.18c-.07-.9-.42-1.6-1.06-2.1-.64-.5-1.47-.75-2.49-.75-.68,0-1.29.12-1.82.35-.53.23-.94.57-1.23,1.01-.29.44-.44.95-.44,1.55,0,.63.14,1.13.43,1.51.29.38.63.66,1.04.84.4.19.92.37,1.57.57.47.13.84.26,1.11.37s.49.26.67.45c.18.19.27.43.27.73,0,.36-.13.66-.4.88-.26.22-.63.34-1.09.34s-.81-.12-1.07-.36c-.26-.24-.4-.56-.43-.97h-2.13c0,.61.18,1.14.5,1.59.32.45.76.79,1.31,1.03.55.24,1.17.36,1.87.36.73,0,1.36-.14,1.89-.41.53-.27.93-.64,1.21-1.1.27-.46.41-.95.41-1.49,0-.62-.15-1.12-.44-1.5-.29-.38-.64-.67-1.05-.86Z"/>
  <rect class="st39" x="324.53" y="74.6" width="1.99" height="10"/>
  <polygon class="st11" points="338.22 81.46 333.72 74.58 331.74 74.58 331.74 84.6 333.72 84.6 333.72 77.74 338.22 84.6 340.2 84.6 340.2 74.58 338.22 74.58 338.22 81.46"/>
  <polygon class="st9" points="345.42 84.6 351.17 84.6 351.17 82.96 347.41 82.96 347.41 80.31 350.74 80.31 350.74 78.72 347.41 78.72 347.41 76.22 351.17 76.22 351.17 74.58 345.42 74.58 345.42 84.6"/>
  <path class="st29" d="M361.66,79.34c-.41-.19-.93-.38-1.57-.57-.47-.14-.84-.27-1.1-.38-.26-.11-.48-.25-.65-.43-.17-.18-.26-.4-.26-.67,0-.38.12-.67.35-.87.23-.2.54-.3.93-.3.44,0,.8.11,1.07.34.27.22.41.51.43.85h2.18c-.07-.9-.42-1.6-1.06-2.1-.64-.5-1.47-.75-2.49-.75-.68,0-1.29.12-1.82.35-.53.23-.94.57-1.23,1.01-.29.44-.44.95-.44,1.55,0,.63.14,1.13.43,1.51.29.38.63.66,1.04.84.4.19.92.37,1.57.57.47.13.84.26,1.11.37.27.11.49.26.67.45.18.19.27.43.27.73,0,.36-.13.66-.4.88-.26.22-.63.34-1.09.34s-.81-.12-1.07-.36c-.26-.24-.4-.56-.43-.97h-2.13c0,.61.18,1.14.5,1.59.32.45.76.79,1.31,1.03.55.24,1.17.36,1.86.36.73,0,1.36-.14,1.89-.41.53-.27.93-.64,1.21-1.1.27-.46.41-.95.41-1.49,0-.62-.15-1.12-.44-1.5-.29-.38-.64-.67-1.05-.86Z"/>
  <path class="st24" d="M373.56,79.34c-.41-.19-.93-.38-1.57-.57-.47-.14-.84-.27-1.1-.38-.26-.11-.48-.25-.65-.43-.17-.18-.26-.4-.26-.67,0-.38.12-.67.35-.87.23-.2.54-.3.93-.3.44,0,.8.11,1.07.34.27.22.41.51.43.85h2.18c-.07-.9-.42-1.6-1.06-2.1-.64-.5-1.47-.75-2.49-.75-.68,0-1.29.12-1.82.35-.53.23-.94.57-1.23,1.01-.29.44-.44.95-.44,1.55,0,.63.14,1.13.43,1.51.29.38.63.66,1.04.84.4.19.92.37,1.57.57.47.13.84.26,1.11.37s.49.26.67.45c.18.19.27.43.27.73,0,.36-.13.66-.4.88-.26.22-.63.34-1.09.34s-.81-.12-1.07-.36c-.26-.24-.4-.56-.43-.97h-2.13c0,.61.18,1.14.5,1.59.32.45.76.79,1.31,1.03.55.24,1.17.36,1.86.36.73,0,1.36-.14,1.89-.41.53-.27.93-.64,1.21-1.1.27-.46.41-.95.41-1.49,0-.62-.15-1.12-.44-1.5-.29-.38-.64-.67-1.05-.86Z"/>
  <polygon class="st21" points="380.03 84.6 385.77 84.6 385.77 82.96 382.02 82.96 382.02 80.31 385.35 80.31 385.35 78.72 382.02 78.72 382.02 76.22 385.77 76.22 385.77 74.58 380.03 74.58 380.03 84.6"/>
  <path class="st34" d="M396.27,79.34c-.41-.19-.93-.38-1.57-.57-.47-.14-.84-.27-1.1-.38-.26-.11-.48-.25-.65-.43-.17-.18-.26-.4-.26-.67,0-.38.12-.67.35-.87.23-.2.54-.3.93-.3.44,0,.8.11,1.07.34.27.22.41.51.43.85h2.18c-.07-.9-.42-1.6-1.06-2.1-.64-.5-1.47-.75-2.49-.75-.68,0-1.29.12-1.82.35-.53.23-.94.57-1.23,1.01s-.44.95-.44,1.55c0,.63.14,1.13.43,1.51.29.38.63.66,1.04.84.4.19.92.37,1.57.57.47.13.84.26,1.11.37s.49.26.67.45c.18.19.27.43.27.73,0,.36-.13.66-.4.88-.26.22-.63.34-1.09.34s-.81-.12-1.07-.36c-.26-.24-.4-.56-.43-.97h-2.13c0,.61.18,1.14.5,1.59.32.45.76.79,1.31,1.03.55.24,1.17.36,1.86.36.73,0,1.36-.14,1.89-.41.53-.27.93-.64,1.21-1.1.27-.46.41-.95.41-1.49,0-.62-.15-1.12-.44-1.5-.29-.38-.64-.67-1.05-.86Z"/>
  <g>
    <path class="st6" d="M114.71,63.23l-1.32-1.94-.59-.86-2.76-4.06-4.98-7.34c-.38-.56-1.02-.9-1.7-.9-1.64,0-2.61,1.81-1.7,3.16l3.45,5.08,2.76,4.06,1.9,2.8,2.31,3.39c.38.56,1.02.89,1.7.89h0c1.64,0,2.61-1.81,1.7-3.15l-.77-1.13Z"/>
    <path class="st4" d="M108.4,38.65h-4.95c-1.1,0-1.99.88-1.99,1.97s.89,1.97,1.99,1.97h5.08c4.94,0,8.95-3.96,8.95-8.86v-1.18c0-4.16-3.41-7.54-7.62-7.54h-14.61c-1.1,0-1.99.88-1.99,1.97s.89,1.97,1.99,1.97h13.19c2.59,0,4.83,1.97,4.94,4.53.12,2.83-2.16,5.16-4.99,5.16Z"/>
    <path class="st3" d="M123.75,63.23l-1.9-2.8-1.17-1.72-1.59-2.33-1.6-2.36-1.92-2.83h0l-2.06-3.03s0,0,0,0c7.27-1.29,9.86-5.97,10.78-8.84,0,0,0,0,0,0,1.64-4.67.07-10.42.07-10.42,0,0,0,0,0,0-1.55-6.09-7.11-10.59-13.74-10.59h-17.34v.09l-.06-.09h-5.13c-1.16,0-2.1.93-2.1,2.08v5.43h0s0,7.19,0,7.19c0,0,0,0,0,0v32.38c0,1.1.83,2.08,1.94,2.14,1.18.06,2.16-.87,2.16-2.02V22.23h18.56c6.66,0,12.05,5.34,12.05,11.92v.51c0,5.21-4.26,9.43-9.53,9.43h-.41c-2.1,0-3.36,2.32-2.18,4.05l4.83,7.11.76,1.13,2.76,4.06.57.84,1.33,1.96,1.86,2.73.19.29c.54.79,1.44,1.27,2.4,1.27,1.44,0,2.3-1.6,1.5-2.78l-1.02-1.5Z"/>
    <path class="st10" d="M95.33,31.68c-1.14,0-2.07.92-2.07,2.05v31.77c0,1.12.92,2.02,2.05,2.02s2.05-.91,2.05-2.02v-24.74l.05-7.02c0-1.14-.92-2.06-2.07-2.06Z"/>
    <path class="st1" d="M183.68,18.24c-1.11,0-2,.89-2,1.98v45.12c0,1.09.9,1.98,2,1.98s2-.89,2-1.98V20.22c0-1.09-.9-1.98-2-1.98Z"/>
    <path class="st8" d="M176.37,18.24h0c-1.11,0-2,.89-2,1.98v45.12c0,1.09.9,1.98,2,1.98h0c1.11,0,2-.89,2-1.98V20.22c0-1.09-.9-1.98-2-1.98Z"/>
    <path class="st38" d="M225.94,18.24h-19.65c-9.38,0-16.98,7.52-16.98,16.8v15.48c0,9.28,7.6,16.8,16.98,16.8h19.65c1.15,0,2.08-.92,2.08-2.06h0c0-1.14-.93-2.07-2.08-2.07h-19c-7.52,0-13.62-6.03-13.62-13.48v-13.87c0-7.44,6.1-13.48,13.62-13.48h19c1.15,0,2.08-.92,2.08-2.06h0c0-1.14-.93-2.07-2.08-2.07Z"/>
    <path class="st2" d="M206.67,29.55h19.27c1.15,0,2.08-.92,2.08-2.06s-.93-2.06-2.08-2.06h-19.61c-5.41,0-9.79,4.34-9.79,9.69v15.36c0,5.35,4.38,9.69,9.79,9.69h19.61c1.15,0,2.08-.92,2.08-2.06h0c0-1.14-.93-2.07-2.08-2.07h-19.27c-3.38,0-6.12-2.71-6.12-6.05v-14.36c0-3.34,2.74-6.05,6.12-6.05Z"/>
    <path class="st30" d="M266.13,18.24h-19.65c-9.38,0-16.98,7.52-16.98,16.8v15.48c0,9.28,7.6,16.8,16.98,16.8h19.65c1.15,0,2.08-.92,2.08-2.06h0c0-1.14-.93-2.07-2.08-2.07h-19c-7.52,0-13.62-6.03-13.62-13.48v-13.87c0-7.44,6.1-13.48,13.62-13.48h19c1.15,0,2.08-.92,2.08-2.06h0c0-1.14-.93-2.07-2.08-2.07Z"/>
    <path class="st50" d="M266.13,25.42h-19.61c-5.41,0-9.79,4.34-9.79,9.69v6.05h24.31c1.2,0,2.17-.96,2.17-2.15s-.97-2.15-2.17-2.15h-20.31v-1.27c0-3.34,2.74-6.05,6.12-6.05h19.27c1.15,0,2.08-.92,2.08-2.06s-.93-2.06-2.08-2.06Z"/>
    <path class="st28" d="M266.13,56.02h-19.27c-3.38,0-6.12-2.71-6.12-6.05v-1.49h20.31c1.2,0,2.17-.96,2.17-2.15s-.97-2.15-2.17-2.15h-24.31v6.28c0,5.35,4.38,9.69,9.79,9.69h19.61c1.15,0,2.08-.92,2.08-2.06h0c0-1.14-.93-2.07-2.08-2.07Z"/>
    <path class="st16" d="M81.6,18.24h-19.65c-9.38,0-16.98,7.52-16.98,16.8v15.48c0,9.28,7.6,16.8,16.98,16.8h19.65c1.15,0,2.08-.92,2.08-2.06h0c0-1.14-.93-2.07-2.08-2.07h-19c-7.52,0-13.62-6.03-13.62-13.48v-13.87c0-7.44,6.1-13.48,13.62-13.48h19c1.15,0,2.08-.92,2.08-2.06h0c0-1.14-.93-2.07-2.08-2.07Z"/>
    <path class="st49" d="M81.6,25.42h-19.61c-5.41,0-9.79,4.34-9.79,9.69v6.05h24.31c1.2,0,2.17-.96,2.17-2.15s-.97-2.15-2.17-2.15h-20.31v-1.27c0-3.34,2.74-6.05,6.12-6.05h19.27c1.15,0,2.08-.92,2.08-2.06s-.93-2.06-2.08-2.06Z"/>
    <path class="st46" d="M81.6,56.02h-19.27c-3.38,0-6.12-2.71-6.12-6.05v-1.49h20.31c1.2,0,2.17-.96,2.17-2.15s-.97-2.15-2.17-2.15h-24.31v6.28c0,5.35,4.38,9.69,9.79,9.69h19.61c1.15,0,2.08-.92,2.08-2.06h0c0-1.14-.93-2.07-2.08-2.07Z"/>
    <path class="st22" d="M39.32,18.23H15.03c-8.3,0-15.03,6.66-15.03,14.87h0c0,8.22,6.73,14.87,15.03,14.87h10.58c2.2,0,4.13,1.68,4.19,3.86.07,2.26-1.76,4.11-4.02,4.11H2.07c-1.14,0-2.07.92-2.07,2.05s.93,2.05,2.07,2.05h23.7c4.51,0,8.17-3.62,8.17-8.08s-3.66-8.08-8.17-8.08h-10.74c-6.01,0-10.89-4.82-10.89-10.77h0c0-5.95,4.87-10.77,10.89-10.77h24.29c1.14,0,2.07-.92,2.07-2.05s-.93-2.05-2.07-2.05Z"/>
    <path class="st47" d="M14.81,29.4h24.51c1.14,0,2.07-.92,2.07-2.05s-.93-2.05-2.07-2.05H14.81c-4.43,0-8.03,3.56-8.03,7.94s3.59,7.94,8.03,7.94h10.94c6.09,0,11.28,4.69,11.49,10.71.23,6.32-4.89,11.52-11.22,11.52H2.07c-1.14,0-2.07.92-2.07,2.05s.93,2.05,2.07,2.05h23.62c8.38,0,15.46-6.5,15.69-14.79.24-8.6-6.74-15.64-15.37-15.64h-11.04c-2.13,0-3.98-1.62-4.05-3.72-.07-2.18,1.7-3.96,3.88-3.96Z"/>
    <path class="st44" d="M154.36,45.76l-2.1,4.83h-1.01c-.26-1.34-1.46-2.35-2.89-2.35s-2.62,1.01-2.89,2.35h-.99l-11.36-26.72h-4.8v1.29h3.94l11.36,26.73h1.9c.18.67.6,1.26,1.16,1.64l-1.33,3.18c-.28-.08-.58-.13-.88-.13-.16,0-.3.01-.45.03l-.29-.66h-.01l-12.93-29.23h-1.43s13.44,30.37,13.44,30.37c-.77.53-1.28,1.41-1.28,2.4,0,1.61,1.32,2.91,2.94,2.91.24,0,.47-.03.7-.08l3.35,7.24,3.28-7.21c.18.04.38.06.57.06,1.62,0,2.94-1.31,2.94-2.91,0-.91-.42-1.72-1.09-2.26l13.72-30.73h-1.44s-13.54,30.14-13.54,30.14c-.19-.04-.39-.06-.59-.06-.21,0-.42.02-.63.07l-1.39-3.35c.42-.38.72-.86.87-1.42h1.94l11.57-26.73h3.81v-1.29h-4.67l-9.49,21.89ZM148.36,49.66c.83,0,1.51.67,1.51,1.49s-.68,1.49-1.51,1.49-1.51-.67-1.51-1.49.68-1.49,1.51-1.49ZM144.46,60.99c-.83,0-1.51-.67-1.51-1.49s.68-1.49,1.51-1.49,1.51.67,1.51,1.49-.68,1.49-1.51,1.49ZM152.35,58c.83,0,1.51.67,1.51,1.49,0,.29-.08.55-.22.77-.25.36-.64.62-1.1.67-.04.01-.06.01-.1.02h-.02s-.04,0-.06,0c-.16,0-.33-.03-.47-.08-.2-.06-.39-.18-.55-.31-.04-.03-.08-.07-.11-.11-.03-.03-.05-.06-.07-.09-.04-.05-.08-.11-.12-.16-.12-.21-.18-.45-.18-.71,0-.82.68-1.49,1.51-1.49ZM150.55,57.2c-.69.53-1.14,1.36-1.14,2.3s.45,1.77,1.14,2.3l-2.08,4.8-1.91-4.24-.04-.09-.22-.5c.68-.54,1.1-1.35,1.1-2.27,0-.83-.35-1.59-.93-2.12l1.4-3.35c.16.03.32.04.48.04.29,0,.57-.04.84-.12l1.36,3.26Z"/>
    <polygon class="st25" points="144.36 46.79 152.23 46.79 162.47 22.07 165.15 22.07 165.15 20.78 161.59 20.78 151.35 45.49 145.24 45.49 135 20.78 130.81 20.78 130.81 22.07 134.12 22.07 144.36 46.79"/>
    <path class="st42" d="M168.23,15.3c-1.4,0-2.57.97-2.87,2.26h-5.64l-10.37,24.72h-2.12l-10.49-24.72h-5.89c-.3-1.29-1.47-2.26-2.87-2.26-1.62,0-2.94,1.31-2.94,2.91s1.32,2.91,2.94,2.91c1.4,0,2.57-.97,2.87-2.26h5.02l10.49,24.72h3.87l10.37-24.72h4.77c.3,1.29,1.47,2.26,2.87,2.26,1.62,0,2.94-1.31,2.94-2.91s-1.32-2.91-2.94-2.91ZM127.98,19.71c-.83,0-1.51-.67-1.51-1.49s.68-1.49,1.51-1.49,1.51.67,1.51,1.49-.68,1.49-1.51,1.49ZM168.23,19.71c-.83,0-1.51-.67-1.51-1.49s.68-1.49,1.51-1.49,1.51.67,1.51,1.49-.68,1.49-1.51,1.49Z"/>
  </g>
</svg>