<?xml version="1.0" encoding="UTF-8"?>
<svg id="Layer_1" xmlns="http://www.w3.org/2000/svg" version="1.1" xmlns:xlink="http://www.w3.org/1999/xlink" viewBox="0 0 500 140">
  <!-- Generator: Adobe Illustrator 29.3.1, SVG Export Plug-In . SVG Version: 2.1.0 Build 151)  -->
  <defs>
    <style>
      .st0 {
        fill: url(#linear-gradient2);
      }

      .st1 {
        fill: url(#linear-gradient36);
      }

      .st2 {
        fill: url(#linear-gradient39);
      }

      .st3 {
        fill: url(#linear-gradient34);
      }

      .st4 {
        fill: url(#linear-gradient33);
      }

      .st5 {
        fill: url(#linear-gradient10);
      }

      .st6 {
        fill: url(#linear-gradient32);
      }

      .st7 {
        fill: url(#linear-gradient21);
      }

      .st8 {
        fill: url(#linear-gradient37);
      }

      .st9 {
        fill: url(#linear-gradient27);
      }

      .st10 {
        fill: url(#linear-gradient35);
      }

      .st11 {
        fill: url(#linear-gradient26);
      }

      .st12 {
        fill: url(#linear-gradient1);
      }

      .st13 {
        fill: url(#linear-gradient9);
      }

      .st14 {
        fill: url(#linear-gradient18);
      }

      .st15 {
        fill: url(#linear-gradient23);
      }

      .st16 {
        fill: url(#linear-gradient43);
      }

      .st17 {
        fill: url(#linear-gradient8);
      }

      .st18 {
        fill: url(#linear-gradient11);
      }

      .st19 {
        fill: url(#linear-gradient16);
      }

      .st20 {
        fill: url(#linear-gradient24);
      }

      .st21 {
        fill: url(#linear-gradient30);
      }

      .st22 {
        fill: url(#linear-gradient46);
      }

      .st23 {
        fill: url(#linear-gradient22);
      }

      .st24 {
        fill: url(#linear-gradient29);
      }

      .st25 {
        fill: url(#linear-gradient49);
      }

      .st26 {
        fill: url(#linear-gradient19);
      }

      .st27 {
        fill: url(#linear-gradient12);
      }

      .st28 {
        fill: url(#linear-gradient42);
      }

      .st29 {
        fill: url(#linear-gradient28);
      }

      .st30 {
        fill: url(#linear-gradient40);
      }

      .st31 {
        fill: url(#linear-gradient7);
      }

      .st32 {
        fill: url(#linear-gradient20);
      }

      .st33 {
        fill: url(#linear-gradient4);
      }

      .st34 {
        fill: url(#linear-gradient31);
      }

      .st35 {
        fill: url(#linear-gradient14);
      }

      .st36 {
        fill: url(#linear-gradient5);
      }

      .st37 {
        fill: url(#linear-gradient3);
      }

      .st38 {
        fill: url(#linear-gradient38);
      }

      .st39 {
        fill: url(#linear-gradient25);
      }

      .st40 {
        fill: url(#linear-gradient15);
      }

      .st41 {
        fill: url(#linear-gradient17);
      }

      .st42 {
        fill: url(#linear-gradient50);
      }

      .st43 {
        fill: url(#linear-gradient6);
      }

      .st44 {
        fill: url(#linear-gradient48);
      }

      .st45 {
        fill: url(#linear-gradient13);
      }

      .st46 {
        fill: url(#linear-gradient45);
      }

      .st47 {
        fill: url(#linear-gradient47);
      }

      .st48 {
        fill: url(#linear-gradient);
      }

      .st49 {
        fill: url(#linear-gradient44);
      }

      .st50 {
        fill: url(#linear-gradient41);
      }
    </style>
    <linearGradient id="linear-gradient" x1="424.64" y1="25.95" x2="426.72" y2="92.67" gradientUnits="userSpaceOnUse">
      <stop offset="0" stop-color="#2dc66c"/>
      <stop offset=".97" stop-color="#369f43"/>
    </linearGradient>
    <linearGradient id="linear-gradient1" x1=".05" y1="106.69" x2="9.02" y2="106.69" gradientUnits="userSpaceOnUse">
      <stop offset="0" stop-color="#3393c3"/>
      <stop offset="1" stop-color="#1e61af"/>
    </linearGradient>
    <linearGradient id="linear-gradient2" x1="15.24" y1="106.72" x2="28.73" y2="106.72" xlink:href="#linear-gradient1"/>
    <linearGradient id="linear-gradient3" x1="34.49" y1="106.71" x2="46.28" y2="106.71" xlink:href="#linear-gradient1"/>
    <linearGradient id="linear-gradient4" x1="52.03" y1="106.72" x2="61.28" y2="106.72" xlink:href="#linear-gradient1"/>
    <linearGradient id="linear-gradient5" x1="66.81" y1="106.72" x2="75.89" y2="106.72" xlink:href="#linear-gradient1"/>
    <linearGradient id="linear-gradient6" x1="89.75" x2="98.73" xlink:href="#linear-gradient1"/>
    <linearGradient id="linear-gradient7" x1="104.95" y1="106.71" x2="112.13" y2="106.71" xlink:href="#linear-gradient1"/>
    <linearGradient id="linear-gradient8" x1="118.46" y1="106.72" x2="127.71" y2="106.72" xlink:href="#linear-gradient1"/>
    <linearGradient id="linear-gradient9" x1="132.93" y1="106.72" x2="145.02" y2="106.72" xlink:href="#linear-gradient1"/>
    <linearGradient id="linear-gradient10" x1="150.58" y1="106.72" x2="153.07" y2="106.72" xlink:href="#linear-gradient1"/>
    <linearGradient id="linear-gradient11" x1="158.99" y1="106.69" x2="171.08" y2="106.69" xlink:href="#linear-gradient1"/>
    <linearGradient id="linear-gradient12" x1="177.28" y1="106.71" x2="184.46" y2="106.71" xlink:href="#linear-gradient1"/>
    <linearGradient id="linear-gradient13" x1="190.47" x2="199.44" xlink:href="#linear-gradient1"/>
    <linearGradient id="linear-gradient14" x1="213.96" y1="106.72" x2="221.6" y2="106.72" xlink:href="#linear-gradient1"/>
    <linearGradient id="linear-gradient15" x1="226.83" x2="239.51" xlink:href="#linear-gradient1"/>
    <linearGradient id="linear-gradient16" x1="245.43" y1="106.72" x2="254.69" y2="106.72" xlink:href="#linear-gradient1"/>
    <linearGradient id="linear-gradient17" x1="268.85" x2="277.82" xlink:href="#linear-gradient1"/>
    <linearGradient id="linear-gradient18" x1="284.05" y1="106.72" x2="297.54" y2="106.72" xlink:href="#linear-gradient1"/>
    <linearGradient id="linear-gradient19" x1="303.3" y1="106.71" x2="315.09" y2="106.71" xlink:href="#linear-gradient1"/>
    <linearGradient id="linear-gradient20" x1="320.83" y1="106.72" x2="330.09" y2="106.72" xlink:href="#linear-gradient1"/>
    <linearGradient id="linear-gradient21" x1="335.62" y1="106.72" x2="344.7" y2="106.72" xlink:href="#linear-gradient1"/>
    <linearGradient id="linear-gradient22" x1="358.88" y1="106.72" x2="368.29" y2="106.72" xlink:href="#linear-gradient1"/>
    <linearGradient id="linear-gradient23" x1="374.32" y1="106.78" x2="384.32" y2="106.78" xlink:href="#linear-gradient1"/>
    <linearGradient id="linear-gradient24" x1="390.47" x2="399.44" xlink:href="#linear-gradient1"/>
    <linearGradient id="linear-gradient25" x1="405.66" y1="106.72" x2="408.15" y2="106.72" xlink:href="#linear-gradient1"/>
    <linearGradient id="linear-gradient26" x1="414.67" y1="106.71" x2="425.26" y2="106.71" xlink:href="#linear-gradient1"/>
    <linearGradient id="linear-gradient27" x1="431.78" y1="106.71" x2="438.96" y2="106.71" xlink:href="#linear-gradient1"/>
    <linearGradient id="linear-gradient28" x1="444.97" x2="453.94" xlink:href="#linear-gradient1"/>
    <linearGradient id="linear-gradient29" x1="459.84" x2="468.81" xlink:href="#linear-gradient1"/>
    <linearGradient id="linear-gradient30" x1="475.04" y1="106.71" x2="482.22" y2="106.71" xlink:href="#linear-gradient1"/>
    <linearGradient id="linear-gradient31" x1="488.23" x2="497.2" xlink:href="#linear-gradient1"/>
    <linearGradient id="linear-gradient32" x1="167.76" y1="26.01" x2="167.57" y2="91.16" xlink:href="#linear-gradient1"/>
    <linearGradient id="linear-gradient33" x1="167.76" y1="26.01" x2="167.57" y2="91.16" xlink:href="#linear-gradient1"/>
    <linearGradient id="linear-gradient34" x1="167.76" y1="26.01" x2="167.57" y2="91.16" xlink:href="#linear-gradient1"/>
    <linearGradient id="linear-gradient35" x1="167.76" y1="26.01" x2="167.57" y2="91.16" xlink:href="#linear-gradient1"/>
    <linearGradient id="linear-gradient36" x1="167.76" y1="26.01" x2="167.57" y2="91.16" xlink:href="#linear-gradient1"/>
    <linearGradient id="linear-gradient37" x1="167.76" y1="26.01" x2="167.57" y2="91.16" xlink:href="#linear-gradient1"/>
    <linearGradient id="linear-gradient38" x1="167.76" y1="26.01" x2="167.57" y2="91.16" xlink:href="#linear-gradient1"/>
    <linearGradient id="linear-gradient39" x1="167.76" y1="26.01" x2="167.57" y2="91.16" xlink:href="#linear-gradient1"/>
    <linearGradient id="linear-gradient40" x1="167.76" y1="26.01" x2="167.57" y2="91.16" xlink:href="#linear-gradient1"/>
    <linearGradient id="linear-gradient41" x1="167.76" y1="26.01" x2="167.57" y2="91.16" xlink:href="#linear-gradient1"/>
    <linearGradient id="linear-gradient42" x1="167.76" y1="26.01" x2="167.57" y2="91.16" xlink:href="#linear-gradient1"/>
    <linearGradient id="linear-gradient43" x1="167.76" y1="26.01" x2="167.57" y2="91.16" xlink:href="#linear-gradient1"/>
    <linearGradient id="linear-gradient44" x1="167.76" y1="26.01" x2="167.57" y2="91.16" xlink:href="#linear-gradient1"/>
    <linearGradient id="linear-gradient45" x1="167.76" y1="26.01" x2="167.57" y2="91.16" xlink:href="#linear-gradient1"/>
    <linearGradient id="linear-gradient46" x1="167.76" y1="26.01" x2="167.57" y2="91.16" xlink:href="#linear-gradient1"/>
    <linearGradient id="linear-gradient47" x1="167.76" y1="26.01" x2="167.57" y2="91.16" xlink:href="#linear-gradient1"/>
    <linearGradient id="linear-gradient48" x1="167.76" y1="26.01" x2="167.57" y2="91.16" xlink:href="#linear-gradient1"/>
    <linearGradient id="linear-gradient49" x1="167.76" y1="26.01" x2="167.57" y2="91.16" xlink:href="#linear-gradient1"/>
    <linearGradient id="linear-gradient50" x1="167.76" y1="26.01" x2="167.57" y2="91.16" xlink:href="#linear-gradient1"/>
  </defs>
  <g>
    <path class="st48" d="M477.62,30.67h0c-12.36,0-22.38,9.84-22.38,21.98v17.11c0,12.14,10.02,21.98,22.38,21.98h0c12.36,0,22.38-9.84,22.38-21.98v-17.11c0-12.14-10.02-21.98-22.38-21.98ZM494.88,69.47c0,9.36-7.73,16.95-17.26,16.95h0c-9.53,0-17.26-7.59-17.26-16.95v-16.97c0-9.36,7.73-16.95,17.26-16.95h0c9.53,0,17.26,7.59,17.26,16.95v16.97Z"/>
    <path class="st48" d="M484.82,40.59c-1.62-.89-3.62.24-3.62,2.07h0c0,.9.51,1.7,1.31,2.12,2.46,1.27,4.13,3.81,4.13,6.72v18.82c0,4.2-3.47,7.6-7.74,7.6h-2.6c-4.27,0-7.74-3.4-7.74-7.6v-18.82c0-2.86,1.61-5.35,3.99-6.64.77-.42,1.26-1.21,1.26-2.08,0-1.84-2.03-2.98-3.64-2.05-3.73,2.15-6.23,6.12-6.23,10.68v19.16c0,6.84,5.65,12.39,12.62,12.39h2.09c6.97,0,12.62-5.55,12.62-12.39v-19.16c0-4.64-2.6-8.68-6.44-10.8Z"/>
    <path class="st48" d="M440.35,86.42l-1.65-2.4-.73-1.07-3.45-5.03-6.23-9.1c-.48-.69-1.27-1.11-2.12-1.11-2.05,0-3.27,2.25-2.12,3.92l4.31,6.3,3.45,5.03,2.37,3.47,2.88,4.21c.48.69,1.27,1.11,2.12,1.11h0c2.05,0,3.27-2.24,2.12-3.91l-.96-1.4Z"/>
    <path class="st48" d="M432.46,55.92h-6.18c-1.38,0-2.49,1.09-2.49,2.45s1.11,2.45,2.49,2.45h6.35c6.18,0,11.19-4.92,11.19-10.99v-1.47c0-5.16-4.26-9.35-9.52-9.35h-18.26c-1.38,0-2.49,1.09-2.49,2.45s1.11,2.45,2.49,2.45h16.49c3.24,0,6.04,2.45,6.18,5.62.15,3.51-2.7,6.4-6.24,6.4Z"/>
    <path class="st48" d="M451.64,86.42l-2.38-3.47-1.46-2.14-1.98-2.89-2-2.92-2.4-3.51h0l-2.58-3.76s0-.01,0-.01c9.09-1.6,12.33-7.41,13.47-10.97,0,0,0,0,0,0,2.06-5.79.08-12.93.08-12.93,0,0,0,0,0,0-1.93-7.55-8.89-13.14-17.18-13.14h-21.67v.11l-.07-.11h-6.42c-1.45,0-2.63,1.15-2.63,2.58v6.74h0s0,8.92,0,8.92c0,0,0,0,0,0v40.17c0,1.36,1.04,2.58,2.42,2.65,1.47.08,2.69-1.08,2.69-2.51v-53.67h23.2c8.32,0,15.06,6.62,15.06,14.79v.64c0,6.46-5.33,11.69-11.91,11.69h-.51c-2.63,0-4.2,2.88-2.73,5.03l6.04,8.82.95,1.4,3.45,5.03.71,1.04,1.67,2.43,2.56,3.74c.67.98,1.8,1.57,3.01,1.57,1.81,0,2.88-1.98,1.87-3.45l-1.28-1.86Z"/>
    <path class="st48" d="M416.12,47.27c-1.43,0-2.59,1.14-2.59,2.54v39.41c0,1.39,1.14,2.51,2.56,2.51s2.56-1.12,2.56-2.51v-30.69l.06-8.7c0-1.41-1.15-2.56-2.59-2.56Z"/>
    <path class="st48" d="M382.86,55.54h-10.15c-1.35-.01-2.44,1.06-2.44,2.38s1.09,2.39,2.43,2.39h9.63c5.89,0,10.67-4.69,10.67-10.48s-4.78-10.48-10.67-10.48h-17.85c-1.27,0-2.4.91-2.52,2.15-.14,1.42,1,2.62,2.42,2.62h17.44c3.5,0,6.33,2.78,6.33,6.21,0,2.87-2.37,5.2-5.29,5.2Z"/>
    <path class="st48" d="M363.76,47.27c-1.43,0-2.59,1.14-2.59,2.54v39.41c0,1.39,1.14,2.51,2.56,2.51s2.56-1.12,2.56-2.51v-30.69l.06-8.7c0-1.41-1.15-2.56-2.59-2.56Z"/>
    <path class="st48" d="M383.42,30.53h-31.37v58.11c0,1.71,1.14,3.1,2.56,3.1s2.56-1.39,2.56-3.1v-53.08h25.79c7.29,0,13.2,5.8,13.2,12.96v3.12c0,7.16-5.91,12.96-13.2,12.96h-10.68c-1.41,0-2.56,1.12-2.56,2.51s1.14,2.51,2.56,2.51h11.13c9.86,0,17.85-7.85,17.85-17.53v-4.02c0-9.68-7.99-17.53-17.85-17.53Z"/>
  </g>
  <path class="st12" d="M7.16,106.4c-.51-.24-1.16-.47-1.97-.71-.59-.18-1.05-.33-1.37-.47-.32-.14-.6-.31-.82-.53-.22-.22-.33-.49-.33-.83,0-.47.14-.84.43-1.08.29-.25.68-.37,1.16-.37.55,0,1,.14,1.34.42.34.28.52.63.54,1.06h2.73c-.08-1.11-.52-1.98-1.32-2.6-.8-.62-1.84-.93-3.11-.93-.85,0-1.61.14-2.27.44-.66.29-1.18.71-1.54,1.25-.37.54-.55,1.18-.55,1.92,0,.78.18,1.41.54,1.87.36.47.79.82,1.29,1.05.5.23,1.16.46,1.96.7.59.17,1.06.32,1.39.45s.62.32.84.56c.22.24.34.54.34.91,0,.45-.17.81-.5,1.09-.33.28-.79.42-1.37.42s-1.01-.15-1.34-.44c-.33-.3-.51-.7-.54-1.21H.05c.01.76.22,1.42.62,1.97.4.56.95.98,1.64,1.28.69.3,1.47.44,2.33.44.91,0,1.7-.17,2.36-.51.66-.34,1.16-.79,1.51-1.36.34-.57.51-1.18.51-1.85,0-.77-.18-1.39-.55-1.87-.37-.47-.8-.83-1.31-1.07Z"/>
  <polygon class="st0" points="22 109.74 18.06 100.52 15.24 100.52 15.24 112.92 17.72 112.92 17.72 104.85 21.06 112.92 22.94 112.92 26.25 104.85 26.25 112.92 28.73 112.92 28.73 100.52 25.93 100.52 22 109.74"/>
  <path class="st37" d="M38.94,100.5l-4.45,12.42h2.61l.82-2.36h4.93l.82,2.36h2.62l-4.45-12.42h-2.89ZM38.59,108.56l1.79-5.19,1.79,5.19h-3.58Z"/>
  <path class="st33" d="M60.43,106.53c.47-.66.71-1.39.71-2.21,0-.71-.17-1.35-.51-1.93-.34-.57-.84-1.03-1.52-1.37-.67-.34-1.49-.51-2.45-.51h-4.65v12.4h2.48v-4.83h1.17l2.73,4.83h2.87l-2.96-5.03c.93-.25,1.64-.7,2.11-1.36ZM56.58,106.22h-2.07v-3.64h2.07c.67,0,1.18.16,1.51.47.33.31.5.76.5,1.32s-.17,1.03-.5,1.36c-.33.33-.83.49-1.51.49Z"/>
  <polygon class="st36" points="66.81 102.52 70.11 102.52 70.11 112.92 72.59 112.92 72.59 102.52 75.89 102.52 75.89 100.52 66.81 100.52 66.81 102.52"/>
  <path class="st43" d="M96.86,106.4c-.51-.24-1.16-.47-1.97-.71-.59-.18-1.05-.33-1.37-.47-.32-.14-.6-.31-.82-.53-.22-.22-.33-.49-.33-.83,0-.47.14-.84.43-1.08.29-.25.68-.37,1.16-.37.55,0,1,.14,1.34.42.34.28.52.63.54,1.06h2.73c-.08-1.11-.52-1.98-1.32-2.6-.8-.62-1.84-.93-3.11-.93-.85,0-1.61.14-2.27.44-.66.29-1.18.71-1.54,1.25s-.55,1.18-.55,1.92c0,.78.18,1.41.54,1.87.36.47.79.82,1.29,1.05.5.23,1.16.46,1.96.7.59.17,1.06.32,1.39.45s.62.32.84.56c.22.24.34.54.34.91,0,.45-.17.81-.5,1.09-.33.28-.79.42-1.37.42s-1.01-.15-1.34-.44c-.33-.3-.51-.7-.54-1.21h-2.66c.01.76.22,1.42.62,1.97.4.56.95.98,1.64,1.28.69.3,1.47.44,2.33.44.91,0,1.7-.17,2.36-.51.66-.34,1.16-.79,1.51-1.36.34-.57.51-1.18.51-1.85,0-.77-.18-1.39-.55-1.87-.37-.47-.8-.83-1.31-1.07Z"/>
  <polygon class="st31" points="104.95 112.92 112.13 112.92 112.13 110.89 107.43 110.89 107.43 107.6 111.6 107.6 111.6 105.63 107.43 105.63 107.43 102.52 112.13 102.52 112.13 100.5 104.95 100.5 104.95 112.92"/>
  <path class="st17" d="M126.86,106.53c.47-.66.71-1.39.71-2.21,0-.71-.17-1.35-.51-1.93-.34-.57-.84-1.03-1.52-1.37-.67-.34-1.49-.51-2.45-.51h-4.65v12.4h2.48v-4.83h1.17l2.73,4.83h2.87l-2.96-5.03c.93-.25,1.64-.7,2.11-1.36ZM123.01,106.22h-2.07v-3.64h2.07c.67,0,1.18.16,1.51.47.33.31.5.76.5,1.32s-.17,1.03-.5,1.36c-.33.33-.83.49-1.51.49Z"/>
  <polygon class="st13" points="138.99 110.38 135.58 100.52 132.93 100.52 137.46 112.92 140.48 112.92 145.02 100.52 142.37 100.52 138.99 110.38"/>
  <rect class="st5" x="150.58" y="100.52" width="2.48" height="12.4"/>
  <path class="st18" d="M163.32,103.1c.56-.34,1.2-.51,1.92-.51.67,0,1.27.15,1.78.44.51.3.91.74,1.2,1.33h2.85c-.41-1.26-1.14-2.24-2.18-2.95s-2.25-1.07-3.63-1.07c-1.18,0-2.25.27-3.2.81-.95.54-1.7,1.29-2.25,2.26-.55.97-.82,2.06-.82,3.28s.27,2.31.82,3.27,1.3,1.71,2.25,2.25c.95.54,2.02.81,3.2.81,1.39,0,2.61-.35,3.64-1.06,1.03-.7,1.76-1.69,2.17-2.96h-2.85c-.28.59-.68,1.04-1.2,1.34-.51.3-1.11.45-1.78.45-.72,0-1.36-.17-1.92-.51-.56-.34-1-.82-1.31-1.44-.31-.62-.47-1.34-.47-2.16s.16-1.55.47-2.17c.31-.62.75-1.09,1.31-1.43Z"/>
  <polygon class="st27" points="177.28 112.92 184.46 112.92 184.46 110.89 179.76 110.89 179.76 107.6 183.93 107.6 183.93 105.63 179.76 105.63 179.76 102.52 184.46 102.52 184.46 100.5 177.28 100.5 177.28 112.92"/>
  <path class="st45" d="M197.58,106.4c-.51-.24-1.16-.47-1.97-.71-.59-.18-1.05-.33-1.37-.47-.32-.14-.6-.31-.82-.53-.22-.22-.33-.49-.33-.83,0-.47.14-.84.43-1.08.29-.25.68-.37,1.16-.37.55,0,1,.14,1.34.42.34.28.52.63.54,1.06h2.73c-.08-1.11-.52-1.98-1.32-2.6-.8-.62-1.84-.93-3.11-.93-.85,0-1.61.14-2.27.44-.66.29-1.18.71-1.54,1.25-.37.54-.55,1.18-.55,1.92,0,.78.18,1.41.54,1.87.36.47.79.82,1.29,1.05.5.23,1.16.46,1.96.7.59.17,1.06.32,1.39.45s.62.32.84.56c.22.24.34.54.34.91,0,.45-.17.81-.5,1.09-.33.28-.79.42-1.37.42s-1.01-.15-1.34-.44c-.33-.3-.51-.7-.54-1.21h-2.66c.01.76.22,1.42.62,1.97.4.56.95.98,1.64,1.28.69.3,1.47.44,2.33.44.91,0,1.7-.17,2.36-.51.66-.34,1.16-.79,1.51-1.36.34-.57.51-1.18.51-1.85,0-.77-.18-1.39-.55-1.87-.37-.47-.8-.83-1.31-1.07Z"/>
  <polygon class="st35" points="213.96 112.92 216.45 112.92 216.45 107.68 220.4 107.68 220.4 105.7 216.45 105.7 216.45 102.52 221.6 102.52 221.6 100.52 213.96 100.52 213.96 112.92"/>
  <path class="st40" d="M236.38,101.16c-.96-.54-2.03-.82-3.2-.82s-2.22.27-3.19.82c-.97.54-1.74,1.3-2.3,2.26-.57.97-.85,2.05-.85,3.26s.28,2.31.85,3.28c.57.97,1.34,1.72,2.3,2.26.97.54,2.03.82,3.19.82s2.22-.27,3.19-.82c.97-.54,1.73-1.3,2.3-2.26.56-.97.84-2.06.84-3.28s-.28-2.29-.84-3.26c-.56-.96-1.32-1.72-2.29-2.26ZM236.48,108.87c-.32.63-.76,1.11-1.33,1.45-.57.34-1.22.51-1.97.51s-1.4-.17-1.98-.51c-.57-.34-1.02-.82-1.34-1.45-.32-.63-.48-1.36-.48-2.19s.16-1.55.48-2.18c.32-.62.77-1.1,1.34-1.43.57-.33,1.23-.5,1.98-.5s1.4.17,1.97.5c.57.33,1.01.81,1.33,1.43.32.62.48,1.35.48,2.18s-.16,1.56-.48,2.19Z"/>
  <path class="st19" d="M253.84,106.53c.47-.66.71-1.39.71-2.21,0-.71-.17-1.35-.51-1.93-.34-.57-.84-1.03-1.52-1.37-.67-.34-1.49-.51-2.45-.51h-4.65v12.4h2.48v-4.83h1.17l2.73,4.83h2.87l-2.96-5.03c.93-.25,1.64-.7,2.11-1.36ZM249.99,106.22h-2.07v-3.64h2.07c.67,0,1.18.16,1.51.47.33.31.5.76.5,1.32s-.17,1.03-.5,1.36c-.33.33-.83.49-1.51.49Z"/>
  <path class="st41" d="M275.96,106.4c-.51-.24-1.16-.47-1.97-.71-.59-.18-1.05-.33-1.37-.47-.32-.14-.6-.31-.82-.53-.22-.22-.33-.49-.33-.83,0-.47.14-.84.43-1.08.29-.25.68-.37,1.16-.37.55,0,1,.14,1.34.42.34.28.52.63.54,1.06h2.73c-.08-1.11-.52-1.98-1.32-2.6-.8-.62-1.84-.93-3.11-.93-.85,0-1.61.14-2.27.44-.66.29-1.18.71-1.54,1.25-.37.54-.55,1.18-.55,1.92,0,.78.18,1.41.54,1.87.36.47.79.82,1.29,1.05.5.23,1.16.46,1.96.7.59.17,1.06.32,1.39.45s.62.32.84.56c.22.24.34.54.34.91,0,.45-.17.81-.5,1.09-.33.28-.79.42-1.37.42s-1.01-.15-1.34-.44c-.33-.3-.51-.7-.54-1.21h-2.66c.01.76.22,1.42.62,1.97.4.56.95.98,1.64,1.28.69.3,1.47.44,2.33.44.91,0,1.7-.17,2.36-.51.66-.34,1.16-.79,1.51-1.36.34-.57.51-1.18.51-1.85,0-.77-.18-1.39-.55-1.87-.37-.47-.8-.83-1.31-1.07Z"/>
  <polygon class="st14" points="290.8 109.74 286.86 100.52 284.05 100.52 284.05 112.92 286.53 112.92 286.53 104.85 289.86 112.92 291.74 112.92 295.06 104.85 295.06 112.92 297.54 112.92 297.54 100.52 294.74 100.52 290.8 109.74"/>
  <path class="st26" d="M307.75,100.5l-4.45,12.42h2.61l.82-2.36h4.93l.82,2.36h2.62l-4.45-12.42h-2.89ZM307.39,108.56l1.79-5.19,1.79,5.19h-3.58Z"/>
  <path class="st32" d="M329.24,106.53c.47-.66.71-1.39.71-2.21,0-.71-.17-1.35-.51-1.93-.34-.57-.84-1.03-1.52-1.37-.67-.34-1.49-.51-2.45-.51h-4.65v12.4h2.48v-4.83h1.17l2.73,4.83h2.87l-2.96-5.03c.93-.25,1.64-.7,2.11-1.36ZM325.39,106.22h-2.07v-3.64h2.07c.67,0,1.18.16,1.51.47.33.31.5.76.5,1.32s-.17,1.03-.5,1.36c-.33.33-.83.49-1.51.49Z"/>
  <polygon class="st7" points="335.62 102.52 338.92 102.52 338.92 112.92 341.4 112.92 341.4 102.52 344.7 102.52 344.7 100.52 335.62 100.52 335.62 102.52"/>
  <path class="st23" d="M365.9,106.56c.64-.2,1.15-.54,1.53-1.03.38-.49.58-1.09.58-1.81,0-.62-.16-1.17-.47-1.65-.31-.48-.77-.86-1.38-1.14-.61-.27-1.33-.41-2.17-.41h-5.11v12.4h5.34c.84,0,1.57-.14,2.18-.43.61-.28,1.08-.68,1.41-1.18.32-.5.49-1.09.49-1.75,0-.73-.23-1.39-.67-1.95-.45-.57-1.02-.92-1.72-1.05ZM361.36,102.52h2.27c.59,0,1.05.14,1.37.41.32.27.48.66.48,1.15s-.16.88-.48,1.15c-.32.27-.77.4-1.37.4h-2.27v-3.11ZM365.27,110.47c-.34.28-.81.43-1.41.43h-2.5v-3.34h2.45c.6,0,1.08.15,1.44.45.35.3.53.72.53,1.25s-.17.92-.51,1.21Z"/>
  <path class="st15" d="M381.82,108.19c0,.84-.22,1.48-.66,1.93-.44.44-1.06.67-1.86.67s-1.41-.22-1.84-.67-.66-1.09-.66-1.93v-7.67h-2.48v7.66c0,1.05.22,1.94.66,2.67.44.73,1.03,1.28,1.78,1.64.75.37,1.59.55,2.51.55s1.78-.18,2.54-.55c.76-.37,1.37-.91,1.83-1.64.46-.73.68-1.62.68-2.67v-7.66h-2.5v7.67Z"/>
  <path class="st20" d="M397.58,106.4c-.51-.24-1.16-.47-1.97-.71-.59-.18-1.05-.33-1.37-.47-.32-.14-.6-.31-.82-.53-.22-.22-.33-.49-.33-.83,0-.47.14-.84.43-1.08.29-.25.68-.37,1.16-.37.55,0,1,.14,1.34.42.34.28.52.63.54,1.06h2.73c-.08-1.11-.52-1.98-1.32-2.6-.8-.62-1.84-.93-3.11-.93-.85,0-1.61.14-2.27.44-.66.29-1.18.71-1.54,1.25-.37.54-.55,1.18-.55,1.92,0,.78.18,1.41.54,1.87.36.47.79.82,1.29,1.05.5.23,1.16.46,1.96.7.59.17,1.06.32,1.39.45s.62.32.84.56c.22.24.34.54.34.91,0,.45-.17.81-.5,1.09-.33.28-.79.42-1.37.42s-1.01-.15-1.34-.44c-.33-.3-.51-.7-.54-1.21h-2.66c.01.76.22,1.42.62,1.97.4.56.95.98,1.64,1.28.69.3,1.47.44,2.33.44.91,0,1.7-.17,2.36-.51.66-.34,1.16-.79,1.51-1.36.34-.57.51-1.18.51-1.85,0-.77-.18-1.39-.55-1.87-.37-.47-.8-.83-1.31-1.07Z"/>
  <rect class="st39" x="405.66" y="100.52" width="2.48" height="12.4"/>
  <polygon class="st11" points="422.77 109.03 417.15 100.5 414.67 100.5 414.67 112.92 417.15 112.92 417.15 104.41 422.77 112.92 425.26 112.92 425.26 100.5 422.77 100.5 422.77 109.03"/>
  <polygon class="st9" points="431.78 112.92 438.96 112.92 438.96 110.89 434.26 110.89 434.26 107.6 438.43 107.6 438.43 105.63 434.26 105.63 434.26 102.52 438.96 102.52 438.96 100.5 431.78 100.5 431.78 112.92"/>
  <path class="st29" d="M452.08,106.4c-.51-.24-1.16-.47-1.97-.71-.59-.18-1.05-.33-1.37-.47-.32-.14-.6-.31-.82-.53-.22-.22-.33-.49-.33-.83,0-.47.14-.84.43-1.08.29-.25.68-.37,1.16-.37.55,0,1,.14,1.34.42.34.28.52.63.54,1.06h2.73c-.08-1.11-.52-1.98-1.32-2.6-.8-.62-1.84-.93-3.11-.93-.85,0-1.61.14-2.27.44-.66.29-1.18.71-1.54,1.25-.37.54-.55,1.18-.55,1.92,0,.78.18,1.41.54,1.87.36.47.79.82,1.29,1.05.5.23,1.16.46,1.96.7.59.17,1.06.32,1.39.45.34.14.62.32.84.56.22.24.34.54.34.91,0,.45-.17.81-.5,1.09-.33.28-.79.42-1.37.42s-1.01-.15-1.34-.44c-.33-.3-.51-.7-.54-1.21h-2.66c.01.76.22,1.42.62,1.97.4.56.95.98,1.64,1.28.69.3,1.47.44,2.33.44.91,0,1.7-.17,2.36-.51.66-.34,1.16-.79,1.51-1.36.34-.57.51-1.18.51-1.85,0-.77-.18-1.39-.55-1.87-.37-.47-.8-.83-1.31-1.07Z"/>
  <path class="st24" d="M466.95,106.4c-.51-.24-1.16-.47-1.97-.71-.59-.18-1.05-.33-1.37-.47-.32-.14-.6-.31-.82-.53-.22-.22-.33-.49-.33-.83,0-.47.14-.84.43-1.08.29-.25.68-.37,1.16-.37.55,0,1,.14,1.34.42.34.28.52.63.54,1.06h2.73c-.08-1.11-.52-1.98-1.32-2.6-.8-.62-1.84-.93-3.11-.93-.85,0-1.61.14-2.27.44-.66.29-1.18.71-1.54,1.25-.37.54-.55,1.18-.55,1.92,0,.78.18,1.41.54,1.87.36.47.79.82,1.29,1.05.5.23,1.16.46,1.96.7.59.17,1.06.32,1.39.45s.62.32.84.56c.22.24.34.54.34.91,0,.45-.17.81-.5,1.09-.33.28-.79.42-1.37.42s-1.01-.15-1.34-.44c-.33-.3-.51-.7-.54-1.21h-2.66c.01.76.22,1.42.62,1.97.4.56.95.98,1.64,1.28.69.3,1.47.44,2.33.44.91,0,1.7-.17,2.36-.51.66-.34,1.16-.79,1.51-1.36.34-.57.51-1.18.51-1.85,0-.77-.18-1.39-.55-1.87-.37-.47-.8-.83-1.31-1.07Z"/>
  <polygon class="st21" points="475.04 112.92 482.22 112.92 482.22 110.89 477.52 110.89 477.52 107.6 481.69 107.6 481.69 105.63 477.52 105.63 477.52 102.52 482.22 102.52 482.22 100.5 475.04 100.5 475.04 112.92"/>
  <path class="st34" d="M495.34,106.4c-.51-.24-1.16-.47-1.97-.71-.59-.18-1.05-.33-1.37-.47-.32-.14-.6-.31-.82-.53-.22-.22-.33-.49-.33-.83,0-.47.14-.84.43-1.08.29-.25.68-.37,1.16-.37.55,0,1,.14,1.34.42.34.28.52.63.54,1.06h2.73c-.08-1.11-.52-1.98-1.32-2.6-.8-.62-1.84-.93-3.11-.93-.85,0-1.61.14-2.27.44-.66.29-1.18.71-1.54,1.25s-.55,1.18-.55,1.92c0,.78.18,1.41.54,1.87.36.47.79.82,1.29,1.05.5.23,1.16.46,1.96.7.59.17,1.06.32,1.39.45s.62.32.84.56c.22.24.34.54.34.91,0,.45-.17.81-.5,1.09-.33.28-.79.42-1.37.42s-1.01-.15-1.34-.44c-.33-.3-.51-.7-.54-1.21h-2.66c.01.76.22,1.42.62,1.97.4.56.95.98,1.64,1.28.69.3,1.47.44,2.33.44.91,0,1.7-.17,2.36-.51.66-.34,1.16-.79,1.51-1.36.34-.57.51-1.18.51-1.85,0-.77-.18-1.39-.55-1.87-.37-.47-.8-.83-1.31-1.07Z"/>
  <g>
    <path class="st6" d="M143.39,86.42l-1.65-2.4-.73-1.07-3.45-5.03-6.23-9.1c-.48-.69-1.27-1.11-2.12-1.11-2.05,0-3.27,2.25-2.12,3.92l4.31,6.3,3.45,5.03,2.37,3.47,2.88,4.21c.48.69,1.27,1.11,2.12,1.11h0c2.05,0,3.27-2.24,2.12-3.91l-.96-1.4Z"/>
    <path class="st4" d="M135.5,55.92h-6.18c-1.38,0-2.49,1.09-2.49,2.45s1.11,2.45,2.49,2.45h6.35c6.18,0,11.19-4.92,11.19-10.99v-1.47c0-5.16-4.26-9.35-9.52-9.35h-18.26c-1.38,0-2.49,1.09-2.49,2.45s1.11,2.45,2.49,2.45h16.49c3.24,0,6.04,2.45,6.18,5.62.15,3.51-2.7,6.4-6.24,6.4Z"/>
    <path class="st3" d="M154.68,86.42l-2.38-3.47-1.46-2.14-1.98-2.89-2-2.92-2.4-3.51h0l-2.58-3.76s0-.01,0-.01c9.09-1.6,12.33-7.41,13.47-10.97,0,0,0,0,0,0,2.06-5.79.08-12.93.08-12.93,0,0,0,0,0,0-1.93-7.55-8.89-13.14-17.18-13.14h-21.67v.11l-.07-.11h-6.42c-1.45,0-2.63,1.15-2.63,2.58v6.74h0s0,8.92,0,8.92c0,0,0,0,0,0v40.17c0,1.36,1.04,2.58,2.42,2.65,1.47.08,2.69-1.08,2.69-2.51v-53.67h23.2c8.32,0,15.06,6.62,15.06,14.79v.64c0,6.46-5.33,11.69-11.91,11.69h-.51c-2.63,0-4.2,2.88-2.73,5.03l6.04,8.82.95,1.4,3.45,5.03.71,1.04,1.67,2.43,2.32,3.39.24.36c.67.98,1.8,1.57,3.01,1.57,1.81,0,2.88-1.98,1.87-3.45l-1.28-1.86Z"/>
    <path class="st10" d="M119.16,47.27c-1.43,0-2.59,1.14-2.59,2.54v39.41c0,1.39,1.14,2.51,2.56,2.51s2.56-1.12,2.56-2.51v-30.69l.06-8.7c0-1.41-1.15-2.56-2.59-2.56Z"/>
    <path class="st1" d="M229.6,30.6c-1.38,0-2.5,1.1-2.5,2.46v55.97c0,1.36,1.12,2.46,2.5,2.46s2.5-1.1,2.5-2.46v-55.97c0-1.36-1.12-2.46-2.5-2.46Z"/>
    <path class="st8" d="M220.47,30.6h0c-1.38,0-2.5,1.1-2.5,2.46v55.97c0,1.36,1.12,2.46,2.5,2.46h0c1.38,0,2.5-1.1,2.5-2.46v-55.97c0-1.36-1.12-2.46-2.5-2.46Z"/>
    <path class="st38" d="M282.43,30.6h-24.56c-11.72,0-21.22,9.33-21.22,20.84v19.21c0,11.51,9.5,20.84,21.22,20.84h24.56c1.44,0,2.61-1.15,2.61-2.56h0c0-1.42-1.17-2.57-2.61-2.57h-23.75c-9.4,0-17.02-7.48-17.02-16.72v-17.21c0-9.23,7.62-16.72,17.02-16.72h23.75c1.44,0,2.61-1.15,2.61-2.56h0c0-1.42-1.17-2.57-2.61-2.57Z"/>
    <path class="st2" d="M258.33,44.63h24.09c1.44,0,2.61-1.15,2.61-2.56s-1.17-2.56-2.61-2.56h-24.51c-6.76,0-12.24,5.38-12.24,12.02v19.05c0,6.64,5.48,12.02,12.24,12.02h24.51c1.44,0,2.61-1.15,2.61-2.56h0c0-1.42-1.17-2.57-2.61-2.57h-24.09c-4.22,0-7.65-3.36-7.65-7.51v-17.82c0-4.15,3.42-7.51,7.65-7.51Z"/>
    <path class="st30" d="M332.66,30.6h-24.56c-11.72,0-21.22,9.33-21.22,20.84v19.21c0,11.51,9.5,20.84,21.22,20.84h24.56c1.44,0,2.61-1.15,2.61-2.56h0c0-1.42-1.17-2.57-2.61-2.57h-23.75c-9.4,0-17.02-7.48-17.02-16.72v-17.21c0-9.23,7.62-16.72,17.02-16.72h23.75c1.44,0,2.61-1.15,2.61-2.56h0c0-1.42-1.17-2.57-2.61-2.57Z"/>
    <path class="st50" d="M332.66,39.51h-24.51c-6.76,0-12.24,5.38-12.24,12.02v7.51h30.39c1.5,0,2.71-1.19,2.71-2.66s-1.21-2.66-2.71-2.66h-25.39v-1.57c0-4.15,3.42-7.51,7.65-7.51h24.09c1.44,0,2.61-1.15,2.61-2.56s-1.17-2.56-2.61-2.56Z"/>
    <path class="st28" d="M332.66,77.47h-24.09c-4.22,0-7.65-3.36-7.65-7.51v-1.84h25.39c1.5,0,2.71-1.19,2.71-2.66s-1.21-2.66-2.71-2.66h-30.39v7.79c0,6.64,5.48,12.02,12.24,12.02h24.51c1.44,0,2.61-1.15,2.61-2.56h0c0-1.42-1.17-2.57-2.61-2.57Z"/>
    <path class="st16" d="M102,30.6h-24.56c-11.72,0-21.22,9.33-21.22,20.84v19.21c0,11.51,9.5,20.84,21.22,20.84h24.56c1.44,0,2.61-1.15,2.61-2.56h0c0-1.42-1.17-2.57-2.61-2.57h-23.75c-9.4,0-17.02-7.48-17.02-16.72v-17.21c0-9.23,7.62-16.72,17.02-16.72h23.75c1.44,0,2.61-1.15,2.61-2.56h0c0-1.42-1.17-2.57-2.61-2.57Z"/>
    <path class="st49" d="M102,39.51h-24.51c-6.76,0-12.24,5.38-12.24,12.02v7.51h30.39c1.5,0,2.71-1.19,2.71-2.66s-1.21-2.66-2.71-2.66h-25.39v-1.57c0-4.15,3.42-7.51,7.65-7.51h24.09c1.44,0,2.61-1.15,2.61-2.56s-1.17-2.56-2.61-2.56Z"/>
    <path class="st46" d="M102,77.47h-24.09c-4.22,0-7.65-3.36-7.65-7.51v-1.84h25.39c1.5,0,2.71-1.19,2.71-2.66s-1.21-2.66-2.71-2.66h-30.39v7.79c0,6.64,5.48,12.02,12.24,12.02h24.51c1.44,0,2.61-1.15,2.61-2.56h0c0-1.42-1.17-2.57-2.61-2.57Z"/>
    <path class="st22" d="M49.15,30.59h-30.36C8.41,30.59,0,38.85,0,49.04h0c0,10.19,8.41,18.45,18.79,18.45h13.22c2.76,0,5.16,2.08,5.24,4.79.09,2.8-2.2,5.09-5.03,5.09H2.59c-1.43,0-2.59,1.14-2.59,2.54s1.16,2.54,2.59,2.54h29.63c5.64,0,10.21-4.49,10.21-10.03s-4.57-10.03-10.21-10.03h-13.43c-7.52,0-13.61-5.98-13.61-13.36h0c0-7.38,6.09-13.36,13.61-13.36h30.36c1.43,0,2.59-1.14,2.59-2.54s-1.16-2.54-2.59-2.54Z"/>
    <path class="st47" d="M18.51,44.45h30.64c1.43,0,2.59-1.14,2.59-2.54s-1.16-2.54-2.59-2.54h-30.64c-5.54,0-10.04,4.41-10.04,9.86s4.49,9.86,10.04,9.86h13.67c7.61,0,14.1,5.81,14.37,13.28.28,7.84-6.11,14.29-14.03,14.29H2.59c-1.43,0-2.59,1.14-2.59,2.54s1.16,2.54,2.59,2.54h29.53c10.47,0,19.33-8.06,19.61-18.34.3-10.67-8.42-19.41-19.21-19.41h-13.8c-2.66,0-4.98-2.01-5.06-4.62-.08-2.7,2.12-4.91,4.85-4.91Z"/>
    <path class="st44" d="M192.95,64.74l-2.63,5.99h-1.27c-.33-1.66-1.82-2.92-3.61-2.92s-3.28,1.26-3.61,2.92h-1.23l-14.2-33.15h-6.01v1.61h4.92l14.2,33.15h2.37c.22.84.75,1.56,1.45,2.04l-1.66,3.95c-.35-.11-.72-.16-1.11-.16-.19,0-.38.01-.56.04l-.37-.82h-.01l-16.16-36.26h-1.78s16.8,37.68,16.8,37.68c-.97.65-1.6,1.74-1.6,2.98,0,1.99,1.65,3.61,3.68,3.61.3,0,.59-.04.87-.11l4.19,8.98,4.1-8.95c.23.05.47.07.71.07,2.03,0,3.68-1.62,3.68-3.61,0-1.13-.53-2.13-1.36-2.8l17.15-38.12h-1.8s-16.93,37.39-16.93,37.39c-.23-.05-.48-.07-.74-.07-.27,0-.53.03-.78.09l-1.74-4.15c.52-.47.9-1.07,1.09-1.76h2.43l14.47-33.15h4.76v-1.61h-5.84l-11.86,27.16ZM185.45,69.58c1.04,0,1.88.83,1.88,1.85s-.84,1.85-1.88,1.85-1.88-.83-1.88-1.85.84-1.85,1.88-1.85ZM180.58,83.63c-1.04,0-1.88-.83-1.88-1.85s.84-1.85,1.88-1.85,1.88.83,1.88,1.85-.84,1.85-1.88,1.85ZM190.44,79.93c1.04,0,1.88.83,1.88,1.85,0,.36-.1.68-.27.96-.31.45-.8.76-1.38.83-.05.01-.08.01-.13.02h-.03s-.05,0-.08,0c-.2,0-.41-.03-.59-.1-.25-.08-.49-.22-.68-.39-.05-.04-.09-.09-.14-.13-.03-.03-.06-.07-.09-.11-.05-.06-.1-.13-.15-.2-.15-.26-.23-.56-.23-.88,0-1.02.84-1.85,1.88-1.85ZM188.19,78.93c-.86.66-1.42,1.69-1.42,2.85s.56,2.19,1.42,2.85l-2.6,5.96-2.39-5.26-.05-.11-.27-.62c.84-.66,1.38-1.68,1.38-2.82,0-1.03-.44-1.97-1.16-2.63l1.76-4.16c.19.03.4.05.6.05.36,0,.71-.05,1.05-.15l1.7,4.04Z"/>
    <polygon class="st25" points="180.45 66.02 190.28 66.02 203.09 35.36 206.44 35.36 206.44 33.75 201.99 33.75 189.19 64.41 181.55 64.41 168.74 33.75 163.51 33.75 163.51 35.36 167.65 35.36 180.45 66.02"/>
    <path class="st42" d="M210.29,26.96c-1.75,0-3.21,1.2-3.58,2.81h-7.05l-12.96,30.66h-2.65l-13.11-30.66h-7.36c-.37-1.6-1.84-2.81-3.58-2.81-2.03,0-3.68,1.62-3.68,3.61s1.65,3.61,3.68,3.61c1.75,0,3.21-1.2,3.58-2.81h6.27l13.11,30.66h4.84l12.96-30.66h5.96c.37,1.6,1.84,2.81,3.58,2.81,2.03,0,3.68-1.62,3.68-3.61s-1.65-3.61-3.68-3.61ZM159.98,32.42c-1.04,0-1.88-.83-1.88-1.85s.85-1.85,1.88-1.85,1.88.83,1.88,1.85-.85,1.85-1.88,1.85ZM210.29,32.42c-1.04,0-1.88-.83-1.88-1.85s.85-1.85,1.88-1.85,1.88.83,1.88,1.85-.85,1.85-1.88,1.85Z"/>
  </g>
</svg>