<?xml version="1.0" encoding="UTF-8"?>
<svg id="Layer_1" xmlns="http://www.w3.org/2000/svg" version="1.1" xmlns:xlink="http://www.w3.org/1999/xlink" viewBox="0 0 150 150">
  <!-- Generator: Adobe Illustrator 29.3.1, SVG Export Plug-In . SVG Version: 2.1.0 Build 151)  -->
  <defs>
    <style>
      .st0 {
        fill: url(#linear-gradient2);
      }

      .st1 {
        fill: url(#linear-gradient1);
      }

      .st2 {
        fill: url(#linear-gradient);
      }
    </style>
    <linearGradient id="linear-gradient" x1="25.23" y1="85.89" x2="126.34" y2="85.89" gradientUnits="userSpaceOnUse">
      <stop offset="0" stop-color="#3393c3"/>
      <stop offset="1" stop-color="#1e61af"/>
    </linearGradient>
    <linearGradient id="linear-gradient1" x1="31.49" y1="53.02" x2="117.86" y2="53.02" xlink:href="#linear-gradient"/>
    <linearGradient id="linear-gradient2" x1="17" y1="41.98" x2="133" y2="41.98" xlink:href="#linear-gradient"/>
  </defs>
  <path class="st2" d="M90.73,83.47l-5.29,12.27h-2.55c-.66-3.4-3.67-5.97-7.26-5.97s-6.59,2.58-7.27,5.97h-2.48L37.31,27.82h-12.08v3.29h9.9l28.58,67.93h4.77c.44,1.71,1.51,3.2,2.93,4.18l-3.34,8.09c-.7-.22-1.46-.34-2.23-.34-.39,0-.76.03-1.12.08l-.74-1.69h-.03L31.43,35.08l-3.59.03,33.81,77.17c-1.94,1.34-3.22,3.57-3.22,6.1,0,4.09,3.32,7.4,7.4,7.4.61,0,1.19-.08,1.75-.22l8.43,18.39,8.24-18.33c.46.09.94.15,1.43.15,4.09,0,7.4-3.32,7.4-7.4,0-2.31-1.07-4.37-2.74-5.73l34.5-78.11h-3.62s-34.06,76.6-34.06,76.6c-.47-.09-.97-.15-1.48-.15-.54,0-1.07.05-1.58.18l-3.51-8.51c1.05-.96,1.82-2.2,2.18-3.6h4.88l29.1-67.93h9.57v-3.29h-11.75l-23.87,55.64ZM75.64,93.38c2.09,0,3.79,1.7,3.79,3.79s-1.7,3.79-3.79,3.79-3.79-1.7-3.79-3.79,1.7-3.79,3.79-3.79ZM65.83,122.16c-2.09,0-3.79-1.7-3.79-3.79s1.7-3.79,3.79-3.79,3.79,1.7,3.79,3.79-1.7,3.79-3.79,3.79ZM85.68,114.58c2.09,0,3.79,1.7,3.79,3.79,0,.73-.2,1.39-.55,1.97-.62.92-1.62,1.56-2.78,1.7-.09.03-.16.03-.26.04h-.05s-.09.01-.16.01c-.4,0-.82-.07-1.19-.2-.51-.16-.98-.45-1.38-.8-.09-.08-.19-.18-.28-.27-.07-.07-.12-.15-.18-.23-.11-.12-.2-.27-.3-.42-.3-.54-.46-1.15-.46-1.81,0-2.09,1.7-3.79,3.79-3.79ZM81.15,112.53c-1.74,1.35-2.86,3.47-2.86,5.84s1.12,4.49,2.86,5.84l-5.23,12.2-4.81-10.78-.11-.23-.55-1.27c1.7-1.36,2.78-3.44,2.78-5.77,0-2.12-.89-4.03-2.33-5.38l3.53-8.52c.39.07.8.09,1.21.09.73,0,1.43-.11,2.1-.31l3.41,8.28Z"/>
  <polygon class="st1" points="65.57 86.09 85.36 86.09 111.13 23.25 117.86 23.25 117.86 19.96 108.92 19.96 83.17 82.77 67.78 82.77 42.03 19.96 31.49 19.96 31.49 23.25 39.82 23.25 65.57 86.09"/>
  <path class="st0" d="M125.61,6.05c-3.51,0-6.46,2.46-7.21,5.75h-14.19l-26.07,62.82h-5.34L46.41,11.8h-14.81c-.75-3.29-3.7-5.75-7.21-5.75-4.08,0-7.4,3.32-7.4,7.4s3.32,7.4,7.4,7.4c3.51,0,6.46-2.46,7.21-5.75h12.62l26.38,62.82h9.74l26.07-62.82h11.99c.75,3.29,3.7,5.75,7.21,5.75,4.08,0,7.4-3.32,7.4-7.4s-3.32-7.4-7.4-7.4ZM24.39,17.24c-2.09,0-3.79-1.7-3.79-3.79s1.7-3.79,3.79-3.79,3.79,1.7,3.79,3.79-1.7,3.79-3.79,3.79ZM125.61,17.24c-2.09,0-3.79-1.7-3.79-3.79s1.7-3.79,3.79-3.79,3.79,1.7,3.79,3.79-1.7,3.79-3.79,3.79Z"/>
</svg>